<svg xmlns="http://www.w3.org/2000/svg" version="1.1" xmlns:xlink="http://www.w3.org/1999/xlink" xmlns:svgjs="http://svgjs.dev/svgjs" width="1440" height="560" preserveAspectRatio="none" viewBox="0 0 1440 560"><g mask="url(&quot;#SvgjsMask1276&quot;)" fill="none"><rect width="1440" height="560" x="0" y="0" fill="url(&quot;#SvgjsLinearGradient1277&quot;)"></rect><path d="M1252.16 202.67 a129.07 129.07 0 1 0 258.14 0 a129.07 129.07 0 1 0 -258.14 0z" fill="rgba(80, 81, 100, 0.4)" class="triangle-float2"></path><path d="M1133.6 353.86 a111.76 111.76 0 1 0 223.52 0 a111.76 111.76 0 1 0 -223.52 0z" fill="rgba(80, 81, 100, 0.4)" class="triangle-float2"></path><path d="M925.0371666787262 72.4099462506643L1016.4790021999245 82.02087044440957 934.6480908724715-19.031889270533952z" fill="rgba(80, 81, 100, 0.4)" class="triangle-float1"></path><path d="M558.0122008739642 456.58936951450653L664.8548250420288 370.06991839855294 578.3353739260751 263.2272942304884 471.4927497580106 349.74674534644197z" fill="rgba(80, 81, 100, 0.4)" class="triangle-float2"></path><path d="M470.1769370789056 4.881345519231413L329.7719893206985-32.740046845914165 292.15059695555294 107.66490091229295 432.55554471376 145.28629327743852z" fill="rgba(80, 81, 100, 0.4)" class="triangle-float2"></path><path d="M808.5364835352494 78.39289580145379L746.4393533249211 177.7690774314005 845.8155349548678 239.86620764172892 907.9126651651961 140.49002601178222z" fill="rgba(80, 81, 100, 0.4)" class="triangle-float3"></path><path d="M1218.408,553.339C1268.54,550.831,1301.265,507.106,1326.71,463.839C1352.657,419.719,1379.282,367.533,1353.78,323.154C1328.226,278.685,1269.686,276.375,1218.408,275.372C1164.5,274.317,1102.707,272.323,1073.54,317.671C1042.842,365.399,1059.84,427.359,1089.558,475.703C1117.703,521.488,1164.731,556.024,1218.408,553.339" fill="rgba(80, 81, 100, 0.4)" class="triangle-float3"></path><path d="M161.69696610233638 188.59994274339292L213.1674644722209 120.29628441541585 84.97672779531305 77.24236602457759z" fill="rgba(80, 81, 100, 0.4)" class="triangle-float3"></path><path d="M290.9833601101669 148.94316597593968L302.23298931888246 42.882508707468176 216.41085202512406 79.31184466195177z" fill="rgba(80, 81, 100, 0.4)" class="triangle-float1"></path><path d="M935.85 260.39 a101.34 101.34 0 1 0 202.68 0 a101.34 101.34 0 1 0 -202.68 0z" fill="rgba(80, 81, 100, 0.4)" class="triangle-float3"></path><path d="M713.1968338549004 74.0121251391736L649.2581358011223 122.19339001589776 753.4993821430976 194.01080465820286z" fill="rgba(80, 81, 100, 0.4)" class="triangle-float2"></path><path d="M381.578,226.181C419.529,228.602,462.472,226.834,483.369,195.062C505.746,161.039,500.182,114.667,476.892,81.263C456.335,51.779,417.506,50.117,381.578,49.065C342.75,47.929,296.243,42.181,276.084,75.386C255.577,109.164,277.392,150.987,300.044,183.366C318.904,210.325,348.744,224.086,381.578,226.181" fill="rgba(80, 81, 100, 0.4)" class="triangle-float1"></path><path d="M207.79738507531627-36.03983382988896L246.2327867717583 98.00034120111 380.27296180275727 59.564939504667976 341.8375601063152-74.47523552633098z" fill="rgba(80, 81, 100, 0.4)" class="triangle-float3"></path><path d="M122.72 553.7 a93.58 93.58 0 1 0 187.16 0 a93.58 93.58 0 1 0 -187.16 0z" fill="rgba(80, 81, 100, 0.4)" class="triangle-float1"></path><path d="M-5.958277910293836 419.35534736423404L132.27749091677677 433.8845121331661 8.57088685863819 281.1195785371634z" fill="rgba(80, 81, 100, 0.4)" class="triangle-float1"></path><path d="M1248.19 295.34 a124.54 124.54 0 1 0 249.08 0 a124.54 124.54 0 1 0 -249.08 0z" fill="rgba(80, 81, 100, 0.4)" class="triangle-float1"></path><path d="M696.4877035601303 584.0798641897818L770.955645121998 438.2719898508437 627.9226716150355 443.26681134839953z" fill="rgba(80, 81, 100, 0.4)" class="triangle-float1"></path><path d="M365.734,497.641C420.226,500.33,476.039,480.012,504.23,433.302C533.251,385.217,529.771,323.414,499.4,276.17C471.227,232.345,417.695,214.062,365.734,217.863C320.022,221.207,284.985,253.796,262.131,293.526C239.355,333.121,228.377,379.978,249.051,420.709C271.651,465.234,315.863,495.18,365.734,497.641" fill="rgba(80, 81, 100, 0.4)" class="triangle-float1"></path><path d="M759.1389989297876 214.09149270701695L642.3828212954257 191.39639080471133 619.6877193931202 308.15256843907315 736.443897027482 330.8476703413788z" fill="rgba(80, 81, 100, 0.4)" class="triangle-float3"></path><path d="M1222.39 319.72 a153.65 153.65 0 1 0 307.3 0 a153.65 153.65 0 1 0 -307.3 0z" fill="rgba(80, 81, 100, 0.4)" class="triangle-float1"></path></g><defs><mask id="SvgjsMask1276"><rect width="1440" height="560" fill="#ffffff"></rect></mask><linearGradient x1="50%" y1="100%" x2="50%" y2="0%" gradientUnits="userSpaceOnUse" id="SvgjsLinearGradient1277"><stop stop-color="#0e2a47" offset="0"></stop><stop stop-color="rgba(49, 54, 61, 1)" offset="1"></stop></linearGradient><style>
                @keyframes float1 {
                    0%{transform: translate(0, 0)}
                    50%{transform: translate(-10px, 0)}
                    100%{transform: translate(0, 0)}
                }

                .triangle-float1 {
                    animation: float1 5s infinite;
                }

                @keyframes float2 {
                    0%{transform: translate(0, 0)}
                    50%{transform: translate(-5px, -5px)}
                    100%{transform: translate(0, 0)}
                }

                .triangle-float2 {
                    animation: float2 4s infinite;
                }

                @keyframes float3 {
                    0%{transform: translate(0, 0)}
                    50%{transform: translate(0, -10px)}
                    100%{transform: translate(0, 0)}
                }

                .triangle-float3 {
                    animation: float3 6s infinite;
                }
            </style></defs></svg>