<svg version="1.1" id="Layer_1" xmlns="http://www.w3.org/2000/svg" xmlns:xlink="http://www.w3.org/1999/xlink" x="0px" y="0px"
	 width="100%" viewBox="0 0 724 736" enable-background="new 0 0 724 736" xml:space="preserve">
<path fill="#FFFFFF" opacity="1.000000" stroke="none" 
	d="
M725.000000,271.000000 
	C725.000000,425.166656 724.984131,578.833313 725.093994,732.499939 
	C725.096680,736.249390 724.249207,737.095032 720.499939,737.093384 
	C482.166656,736.989746 243.833328,736.989746 5.500041,737.093445 
	C1.750812,737.095093 0.905018,736.249207 0.906620,732.499939 
	C1.010116,490.166656 1.010116,247.833328 0.906620,5.500040 
	C0.905018,1.750818 1.750812,0.904971 5.500041,0.906602 
	C243.833328,1.010286 482.166656,1.010286 720.499939,0.906602 
	C724.249207,0.904971 725.100281,1.750196 725.095093,5.500132 
	C724.972473,93.833298 725.000000,182.166672 725.000000,271.000000 
z"/>
<path fill="#D3D2D2" opacity="1.000000" stroke="none" 
	d="
M691.600037,387.691528 
	C691.944702,389.089203 691.949158,390.132233 691.948120,391.566345 
	C690.020752,395.239563 691.425293,398.828125 690.993774,402.623810 
	C690.201477,420.241180 687.682678,437.246887 684.000977,454.091614 
	C678.333618,480.020630 669.463257,504.850281 657.637939,528.568176 
	C645.277588,553.359314 629.931946,576.172485 611.608154,597.038208 
	C583.143066,629.452026 549.620239,655.211365 511.068146,674.408508 
	C482.041473,688.862427 451.380066,698.568359 419.416260,703.776794 
	C399.097778,707.087708 378.527008,708.834473 357.922150,707.848022 
	C329.555023,706.489868 301.603516,702.308838 274.326172,694.003113 
	C240.635284,683.744446 209.356491,668.622742 180.596344,648.321228 
	C150.456985,627.046021 124.853889,601.247742 103.435402,571.194031 
	C82.876678,542.346741 67.474167,511.007904 57.217747,477.152588 
	C51.730984,459.041473 48.209713,440.517242 45.840946,421.714386 
	C44.129078,408.125916 43.962074,394.547668 43.935570,380.453918 
	C46.157005,377.944763 48.935055,378.483704 51.543419,378.424713 
	C82.166328,377.731720 112.757141,379.794830 143.808350,379.558777 
	C148.199905,380.014435 149.542160,383.286438 151.233704,386.105133 
	C165.338852,409.608917 184.852814,427.509216 209.250961,439.553375 
	C247.696991,458.532318 287.284546,460.041931 327.439667,444.853271 
	C328.997009,444.264221 330.569061,443.695251 332.079071,442.998779 
	C335.302124,441.512085 337.947571,442.272278 340.016937,445.015930 
	C345.835266,452.730103 352.280579,459.942474 358.076965,467.674927 
	C359.661407,469.788513 360.573151,472.121948 360.195221,474.667175 
	C357.624084,491.982361 364.923615,505.573181 375.696808,518.274231 
	C392.930145,538.591492 409.336243,559.596069 426.126099,580.282349 
	C431.580902,587.002991 437.037994,593.727112 442.564575,600.393250 
	C457.637878,618.574768 482.316681,622.003235 503.297028,610.948914 
	C527.195740,598.356995 538.489014,571.772949 529.855469,548.179382 
	C528.353821,544.075745 526.259033,540.320374 523.521179,536.906067 
	C498.933746,506.244446 474.182526,475.714386 449.410095,445.203125 
	C441.905762,435.960327 431.829437,430.467987 419.801483,429.328430 
	C414.977264,428.871399 411.372681,427.017242 408.412201,423.144867 
	C403.458160,416.664825 398.146027,410.460052 392.956146,404.162628 
	C389.436523,399.892029 389.118286,397.867889 392.626923,393.574249 
	C395.607849,389.926422 396.710297,384.608856 402.269501,382.718567 
	C426.489227,382.576141 450.278625,381.707611 474.071167,383.178436 
	C486.196045,383.927979 498.372620,383.345367 510.525726,383.383240 
	C524.011719,383.425293 537.514404,382.961304 550.980896,383.475739 
	C587.754517,384.880585 624.542603,383.918182 661.313782,384.640411 
	C669.445801,384.800140 677.590027,385.386841 685.741882,385.475494 
	C687.745911,385.497253 689.757080,385.722473 691.600037,387.691528 
z"/>
<path fill="#E8E8E8" opacity="1.000000" stroke="none" 
	d="
M691.966797,387.651917 
	C689.713135,387.372131 687.474670,387.018341 685.111450,386.930756 
	C647.877563,385.550568 610.604248,386.889557 573.393433,385.736145 
	C540.795105,384.725677 508.193024,386.204498 475.651672,384.771606 
	C451.038452,383.687775 426.454163,384.586517 401.393799,383.911591 
	C399.557495,381.110443 401.560822,379.084564 402.606964,376.957520 
	C409.568115,362.804199 414.696106,348.040649 417.008636,332.425659 
	C421.298279,303.460754 417.197937,275.685577 404.612061,249.196747 
	C400.091644,239.682816 394.889801,230.594971 388.063995,222.043839 
	C387.111206,219.566238 388.727325,218.336639 389.745941,216.886780 
	C393.980377,210.859802 393.119324,207.465286 386.470490,204.441757 
	C384.927521,203.740097 383.321014,203.264496 383.041077,200.899292 
	C383.047333,200.304230 383.074127,200.067917 383.196899,199.490372 
	C384.142944,197.525558 385.060730,195.934494 385.808990,193.882996 
	C386.638031,192.142822 387.418610,190.758667 388.153564,188.967926 
	C390.414124,184.174149 392.440338,179.626053 397.206879,176.750961 
	C397.778290,176.763138 398.000580,176.834427 398.490417,177.110382 
	C400.928223,178.165054 400.745941,176.141434 401.119080,175.182678 
	C404.206726,167.248764 410.585999,162.033081 416.489441,156.438370 
	C417.664276,155.324966 419.311310,154.055756 420.907898,155.273148 
	C422.227875,156.279602 421.629761,158.105606 421.139465,159.493317 
	C419.479034,164.192780 419.791199,169.486908 415.542542,173.435089 
	C412.943573,175.850204 414.042114,180.628830 416.926208,183.342957 
	C420.371216,186.584900 424.595184,188.594467 428.975067,190.255142 
	C431.108582,191.064087 432.553650,190.609940 432.688660,187.978622 
	C432.943878,183.002899 434.109131,178.092667 433.674286,173.062881 
	C433.236938,168.004242 431.280701,166.225739 426.284241,166.605774 
	C424.166565,166.766830 421.684967,167.758240 420.350952,165.454529 
	C419.024200,163.163391 420.601044,160.867767 421.696716,158.926651 
	C424.590973,153.799194 429.445435,150.710754 434.435089,148.031784 
	C443.291168,143.276947 452.829071,140.034531 462.641235,138.278336 
	C469.831268,136.991455 477.171478,139.246567 484.406189,140.152466 
	C490.159668,140.872879 495.990662,141.535355 501.492950,143.621994 
	C502.555206,144.024841 503.934601,144.292969 503.982605,145.699280 
	C504.018188,146.742081 503.132568,147.557175 502.176697,147.900040 
	C491.567200,151.705444 484.010986,159.324005 477.134979,167.814301 
	C476.718048,168.329163 476.079498,168.616562 475.141296,169.031830 
	C474.343079,169.285263 473.862610,169.333664 473.417694,169.515121 
	C473.693512,169.961121 474.055725,169.324966 474.649170,169.797089 
	C475.850311,172.366211 474.206787,174.097504 473.438416,176.036469 
	C470.984528,182.228836 467.365753,187.974060 469.771332,195.367889 
	C470.999298,199.142288 469.695038,203.582352 470.486786,208.051056 
	C471.571075,211.833130 472.807892,215.149429 467.977631,217.005295 
	C465.770813,217.853180 465.577637,219.918320 466.472961,222.090729 
	C467.868195,225.475845 470.075500,228.033646 473.460144,229.531036 
	C475.895844,230.608597 478.328888,231.703415 480.042114,234.191406 
	C480.472290,230.067459 482.659637,227.014420 484.578857,223.852783 
	C486.524689,220.647263 487.652405,217.398941 484.657104,214.267227 
	C481.830811,211.312195 478.628998,212.051529 475.552826,213.903488 
	C472.939911,215.476578 471.192322,215.782532 471.437256,211.798019 
	C471.497192,210.822540 470.942993,209.877426 470.585083,208.549774 
	C469.764069,203.388046 470.070038,198.561691 469.998047,193.749268 
	C469.988098,193.083267 470.048187,193.900604 469.954071,193.253448 
	C469.186737,187.977600 475.484894,185.571152 474.924347,179.978867 
	C474.413147,174.879135 478.400146,171.206833 481.835876,167.776611 
	C483.189270,166.425385 484.585236,164.263123 486.754272,165.133133 
	C488.798462,165.953079 487.707062,168.388855 488.063751,170.095627 
	C488.166382,170.586823 488.297089,171.061996 488.659973,171.876343 
	C489.063934,173.520401 489.992218,174.756241 489.673065,176.044098 
	C488.638550,180.218719 490.085083,183.751419 492.130981,187.527069 
	C488.486481,189.912674 483.561188,189.150208 480.686279,193.374557 
	C480.011810,193.534012 479.736877,193.403183 479.472626,193.203369 
	C479.329285,193.095001 479.170654,193.140289 479.131073,193.161560 
	C478.543732,193.476974 479.100342,194.062759 478.977875,193.407425 
	C478.976227,193.398712 479.136383,193.355789 479.707855,193.487274 
	C481.359711,195.366119 480.307617,197.214523 480.318634,198.978256 
	C480.346283,203.411545 482.077881,205.320541 486.542328,205.709183 
	C487.205078,205.766861 487.871887,205.750397 488.537140,205.755661 
	C492.253326,205.785080 496.910095,205.808975 498.618530,202.832428 
	C500.214508,200.051773 496.166138,197.240112 494.548004,194.466873 
	C493.416321,192.527405 491.146332,191.122894 491.866150,188.130432 
	C494.963593,185.910690 497.905365,188.103958 500.816406,187.726166 
	C502.760162,187.473907 504.778839,188.109985 506.931396,187.265060 
	C505.944702,183.559402 504.837311,179.934387 503.697449,176.327789 
	C501.822876,170.396179 499.163635,169.383850 493.629028,172.362564 
	C492.606567,172.912857 491.678589,173.667740 490.061890,173.321198 
	C486.715942,167.611343 487.418427,162.831467 492.386047,158.527298 
	C498.402832,153.314072 505.628204,150.265671 513.182983,148.029510 
	C515.452271,147.357819 517.827026,147.754929 520.071899,148.519684 
	C541.777161,155.914017 562.229614,165.837219 581.126404,178.875961 
	C582.442932,179.784393 584.426514,180.676559 583.883911,182.596603 
	C583.338501,184.526306 581.190735,184.163055 579.593933,184.277649 
	C572.446411,184.790604 565.308899,185.279297 558.683960,188.449921 
	C557.160767,189.178879 555.490967,189.375305 553.447021,188.747314 
	C551.811646,188.400879 550.527039,188.524216 548.886230,188.410431 
	C546.451538,187.370468 546.019470,185.561096 545.730347,183.467300 
	C544.931519,177.681854 542.902100,176.322006 536.966980,176.960419 
	C533.667725,177.315323 530.426880,178.146713 527.101501,178.205994 
	C524.762268,178.247696 524.190796,179.166199 525.064758,181.322617 
	C526.447021,184.733231 528.085754,188.002319 530.571533,190.721939 
	C534.521973,195.043976 538.431213,195.011490 542.517517,190.805008 
	C543.864807,189.417999 544.787537,187.416077 547.519897,187.728760 
	C549.116333,188.963287 550.648865,188.342819 552.423706,188.580139 
	C554.476746,190.448990 553.190002,191.852463 551.816101,192.636093 
	C544.920471,196.569397 539.505066,202.357758 532.960449,207.256226 
	C531.082397,207.768356 530.091003,209.675568 528.997925,209.356155 
	C529.650269,209.382248 530.772339,208.635941 532.172729,207.654266 
	C532.806824,207.435760 533.328003,207.239059 533.433777,207.382828 
	C536.462952,211.498245 537.227356,206.959610 538.769348,205.922760 
	C544.073425,202.356262 548.588196,197.769714 553.799438,194.080872 
	C555.852966,192.627304 558.313416,192.035370 560.756897,191.569412 
	C565.169861,190.727859 566.009644,191.673477 565.063477,196.263153 
	C564.929871,196.911377 564.801941,197.559723 564.495605,198.531158 
	C563.918274,200.101410 564.190125,201.664444 563.179688,202.611923 
	C559.997253,205.595947 559.420776,209.406311 559.220947,213.736038 
	C555.027039,212.977493 551.078247,211.916794 546.598694,212.624115 
	C546.016663,212.302139 545.881287,212.024170 545.692566,211.810562 
	C545.298279,211.364136 545.910156,210.846161 545.541809,210.424179 
	C545.429382,210.854828 545.511719,211.290085 545.580078,212.060623 
	C545.986938,214.593674 544.530579,216.093445 543.592041,217.812424 
	C541.584595,221.489136 542.212524,224.349274 545.505066,226.928711 
	C546.290588,227.544113 547.128906,228.094498 548.070557,228.410934 
	C551.324036,229.504181 555.114197,232.179672 557.877197,230.365524 
	C560.442444,228.681213 558.155396,224.583130 557.931519,221.550476 
	C557.761353,219.244843 557.452332,216.936966 558.539673,214.414886 
	C562.822815,213.558304 564.598511,217.272614 567.466370,218.895660 
	C572.080444,221.506973 571.924683,221.722900 573.395874,216.547501 
	C574.163269,213.847931 575.105957,211.184753 575.447632,208.392853 
	C576.012512,203.777527 574.095642,201.694580 569.474854,201.274979 
	C567.680420,201.112061 564.854492,202.836685 564.546509,198.773926 
	C565.715149,192.598358 569.333557,189.441177 575.032166,188.483536 
	C586.082825,186.626450 595.759521,188.391891 604.379150,196.647858 
	C614.257812,206.109756 623.713135,215.840805 632.036499,226.692184 
	C642.016846,239.703751 648.886597,254.014359 652.062378,270.241913 
	C656.514832,292.993317 659.796936,315.833313 659.342407,339.062164 
	C659.104736,351.208618 657.965820,363.295349 654.997253,375.138855 
	C653.534668,380.973541 653.974487,381.575012 659.833374,381.599762 
	C668.320312,381.635620 676.807678,381.586426 685.294678,381.624481 
	C687.436096,381.634094 689.647705,381.360107 691.828247,382.966858 
	C692.031311,384.634094 692.012268,385.945892 691.966797,387.651917 
z"/>
<path fill="#E9E9E9" opacity="1.000000" stroke="none" 
	d="
M146.275787,380.569366 
	C132.255447,380.932617 118.395432,381.750183 104.658279,380.796997 
	C84.717186,379.413330 64.802162,380.542755 44.410347,379.991089 
	C42.289047,378.297028 42.946739,376.161926 43.053368,374.272552 
	C44.576996,347.274841 48.222870,320.623840 55.651413,294.534393 
	C61.267815,274.809265 68.585274,255.740417 77.888924,237.526886 
	C89.161263,215.459320 102.687859,194.845230 118.594894,175.701279 
	C139.051208,151.082291 162.738785,130.139801 189.289093,112.592773 
	C224.978287,89.005875 263.962463,72.982964 306.107178,64.969887 
	C320.593964,62.215481 335.198517,60.833496 349.917450,59.710583 
	C364.762878,58.578018 379.435883,59.640823 394.181732,60.050156 
	C396.478668,60.113918 398.761902,60.670689 401.479950,60.991470 
	C402.602448,61.592365 402.736603,62.411644 402.645935,63.249226 
	C402.255585,66.855324 404.069458,68.460060 407.474640,68.723534 
	C408.799469,68.826035 410.128357,69.007301 411.444183,70.223099 
	C412.107758,71.161842 412.396332,71.874077 412.791809,72.964981 
	C413.137207,78.236565 414.425598,83.061859 414.012360,88.381912 
	C415.186310,92.776642 417.190582,96.414925 418.958038,100.155716 
	C419.730133,101.789803 420.789703,103.341377 420.447235,105.634315 
	C419.340607,106.968376 418.117371,106.317795 417.020935,106.495148 
	C418.212006,106.471413 419.314789,106.809731 420.693726,107.531197 
	C427.094971,114.346100 432.869354,121.251549 440.005920,126.813774 
	C441.183594,127.731659 442.432404,129.091354 441.908234,130.624084 
	C441.362244,132.220444 439.496704,132.269318 438.015198,132.258621 
	C430.034973,132.201065 422.056183,132.747726 414.074890,131.780228 
	C405.625824,130.755997 397.110870,131.537079 388.627075,131.359192 
	C385.134857,131.285965 381.654236,131.025894 378.173523,130.841309 
	C370.766113,130.448441 366.448303,126.383240 363.661957,120.008835 
	C363.415436,120.954651 364.135986,121.566307 364.383636,122.329620 
	C364.873535,123.839470 366.863007,125.258698 365.692444,126.816345 
	C364.242645,128.745499 361.905579,127.760094 360.140442,127.077652 
	C353.876312,124.655838 346.671906,123.823662 342.516846,116.957298 
	C340.604797,112.974525 339.323059,109.220528 339.895325,105.090683 
	C340.278564,102.324928 341.426270,100.650986 344.687988,100.554375 
	C352.045410,100.336449 354.340942,97.482697 353.540070,90.218086 
	C352.641907,82.071045 351.927704,81.722366 344.738922,85.750069 
	C342.133240,87.209999 339.779663,89.099686 336.642822,90.273819 
	C333.844330,84.925682 329.963165,80.802353 325.244232,77.386597 
	C324.357117,76.744492 323.530426,75.315338 322.378632,76.649269 
	C319.219971,80.307388 314.766510,83.154488 315.163055,89.033226 
	C315.383698,92.304207 316.338318,94.126625 319.918823,93.495094 
	C322.159973,93.099808 324.196045,93.429565 326.044342,95.440826 
	C326.293060,95.963913 326.343964,96.193954 326.315308,96.767395 
	C324.405914,98.515709 325.049988,100.140549 325.637634,101.915031 
	C326.503540,104.529724 328.344086,106.818520 328.096405,110.031143 
	C323.455109,110.760986 319.254333,111.471260 317.270325,105.512985 
	C315.958344,101.572906 312.055634,101.248245 308.413239,102.562302 
	C304.656067,103.917770 301.518250,106.319855 298.317566,109.004631 
	C302.208740,111.823013 305.457306,114.920189 309.316528,117.190323 
	C312.257324,118.920189 314.976349,118.994385 317.001617,115.695038 
	C320.557098,109.902802 320.562836,109.906319 327.787415,111.035400 
	C330.148071,111.480156 331.716797,112.688896 333.253326,113.917824 
	C337.999023,117.713455 342.788757,121.427078 348.406464,123.908363 
	C349.594116,124.432930 350.768616,125.101845 351.150269,126.845413 
	C347.434784,129.455963 343.012024,129.654556 339.034607,131.973358 
	C336.630341,133.024460 335.638123,131.489090 334.760895,130.121445 
	C332.946930,127.293365 330.670227,125.791702 327.227081,126.888580 
	C323.453003,128.090866 321.477478,130.690292 321.333832,134.634613 
	C321.189514,138.597549 321.453918,142.573807 320.489868,146.903381 
	C323.756348,146.647278 326.479584,147.443329 329.274750,147.626816 
	C332.349365,147.828629 335.236664,147.066437 337.821259,145.391205 
	C341.442841,143.043823 341.775787,141.196304 339.376678,137.660233 
	C338.213226,135.945404 336.142914,134.314346 339.080139,131.956070 
	C343.571106,129.928299 347.897217,128.591766 352.789673,127.715424 
	C355.211609,127.531342 357.221771,127.607445 359.150177,128.187988 
	C382.207886,135.129715 405.831390,137.246140 429.796417,136.645447 
	C432.529663,136.576950 436.933167,135.565353 437.536682,138.186050 
	C438.317688,141.577499 433.693390,141.978180 431.192200,143.248337 
	C422.704346,147.558640 414.325684,151.991516 407.279236,158.549484 
	C405.297424,160.393921 403.120056,161.937637 399.744202,161.497467 
	C397.714935,162.059250 396.106720,161.310257 394.100342,161.455902 
	C393.050049,161.057983 392.477783,160.501266 391.305115,160.372894 
	C389.001251,157.771042 389.978058,154.831558 389.773407,152.083939 
	C389.336884,146.223709 385.514008,142.976044 379.716919,143.931534 
	C374.046539,144.866135 369.069336,147.475098 363.954773,150.943466 
	C368.520477,155.086136 372.424194,159.535782 376.852081,163.440231 
	C380.557983,166.708069 383.695648,166.416183 387.295258,162.833862 
	C388.120422,162.012695 388.847290,161.096268 390.301910,160.557648 
	C391.112061,160.503235 391.578369,160.523544 392.369843,160.670624 
	C394.557861,161.989639 396.682831,161.519089 399.038696,161.647644 
	C403.761963,161.845596 404.188141,162.449554 401.811829,165.814896 
	C398.218597,170.903656 393.810852,175.359436 389.932922,180.691956 
	C388.685211,182.024033 387.322296,182.524704 385.763672,183.387238 
	C385.229767,183.654938 385.012482,183.755371 384.460052,183.986511 
	C380.530823,185.652878 378.078522,184.489990 376.578156,180.969116 
	C376.256073,180.213333 375.765015,179.532791 375.277100,178.864014 
	C369.719971,171.247498 363.868774,171.352936 358.250427,178.995468 
	C356.171783,181.822968 355.859192,185.553909 352.931213,188.218674 
	C349.710815,188.333450 347.694244,186.378311 345.422607,185.074585 
	C328.560181,175.397171 310.384827,169.638702 291.157654,167.408249 
	C250.487640,162.690338 214.089722,173.607742 182.619965,199.434616 
	C153.334732,223.468674 136.080490,254.739517 131.284134,292.482178 
	C127.597641,321.491302 132.242279,349.222443 145.207352,375.500916 
	C145.939468,376.984772 146.795013,378.457275 146.275787,380.569366 
z"/>
<path fill="#E1A965" opacity="1.000000" stroke="none" 
	d="
M327.890594,110.872772 
	C326.624115,107.066605 325.109589,103.590683 323.678741,100.080650 
	C323.008270,98.435951 322.548676,96.747711 325.653259,96.616440 
	C328.959991,100.426590 330.388245,105.056396 333.476288,108.724251 
	C335.515259,111.146034 337.604492,113.344780 340.879639,114.716034 
	C341.647919,115.007683 342.052979,115.240776 342.678284,115.777428 
	C348.299805,123.748741 357.196655,124.169449 366.392944,127.671089 
	C362.899750,123.270905 361.151703,119.719803 362.220581,114.477417 
	C364.109344,118.027679 365.618347,120.828407 367.094604,123.646301 
	C370.208710,129.590485 376.254486,129.596710 381.451324,129.700058 
	C401.355957,130.095871 421.273163,129.860153 441.487579,129.860153 
	C433.779175,123.814163 426.475800,116.762253 420.138428,108.355377 
	C419.661163,107.720673 419.524536,107.318451 419.844116,106.628220 
	C418.558258,100.509842 414.826447,95.582481 412.720581,89.540848 
	C413.083435,88.041626 413.245239,86.764122 414.463013,85.678329 
	C418.631531,86.688385 417.522949,90.805923 419.361572,92.827637 
	C419.466309,93.780464 420.525757,93.153625 419.866089,93.250046 
	C419.810455,93.258179 419.812683,93.176277 419.752502,93.102890 
	C418.675476,91.789017 419.238617,90.704887 420.548737,89.513748 
	C421.362152,89.256042 421.846100,89.244034 422.663818,89.478325 
	C424.547455,91.250244 424.082062,93.331787 424.254639,95.262680 
	C424.807495,101.448654 427.803253,106.510773 431.608917,111.180992 
	C432.316437,112.049248 433.161316,112.966286 434.897583,112.473000 
	C435.495850,112.402840 435.739929,112.401581 436.341614,112.494125 
	C439.884003,115.730064 442.655151,119.247139 445.731323,122.498299 
	C452.463257,129.613220 461.013336,131.564590 470.168304,131.610687 
	C482.857605,131.674576 495.305878,133.758896 508.594849,135.511688 
	C500.776733,128.988403 495.336761,121.412918 491.282959,112.359695 
	C491.031982,111.744415 490.942200,111.490479 490.755676,110.838730 
	C488.488495,101.995651 484.462311,93.901016 485.974976,84.393448 
	C488.314789,83.993111 489.168671,82.803848 489.578888,80.738007 
	C490.181793,77.701591 491.139648,74.735649 492.091003,71.373230 
	C492.436340,70.904938 492.637024,70.803101 493.111572,70.898560 
	C493.178253,75.118851 491.682526,78.997406 492.088165,83.522827 
	C494.085083,86.345627 492.354248,90.253517 495.771851,92.390503 
	C496.619446,93.557556 496.563141,94.584488 496.351715,95.546898 
	C495.034119,101.544403 496.837799,106.711502 500.452911,111.424057 
	C501.650818,112.985580 502.675323,114.663170 503.711395,116.568970 
	C503.730713,117.005165 504.466248,116.000282 503.885254,116.327209 
	C502.767853,114.276184 503.974487,112.933472 505.664490,111.524254 
	C508.658295,112.214180 508.219238,114.540230 508.189484,116.379051 
	C508.133698,119.829643 509.658569,122.287041 511.936096,124.718140 
	C518.234497,131.441299 526.165649,135.870499 534.349121,139.358948 
	C548.214722,145.269592 563.248108,148.037003 577.252930,154.378036 
	C573.258423,145.656006 569.814453,136.960114 567.988892,127.417046 
	C570.764648,125.646286 570.006287,123.157913 569.917297,120.977875 
	C569.724976,116.267799 569.365295,111.564575 569.113464,106.428650 
	C569.333191,105.881775 569.513489,105.764801 569.993774,105.766113 
	C571.029785,105.308304 570.936829,103.765388 572.112122,103.874519 
	C573.441162,103.997948 573.109009,105.269814 573.114685,106.177559 
	C573.126892,108.123901 573.095459,110.070534 573.057617,112.458992 
	C573.395142,113.456657 573.885925,113.696289 574.799622,113.357826 
	C575.419678,112.528259 575.787109,111.860008 576.398315,111.030281 
	C577.096252,110.558426 577.594421,110.448746 578.457642,110.769814 
	C573.787964,120.834427 575.785278,130.556488 579.167786,140.974274 
	C579.747437,139.611160 580.055664,138.886307 580.605225,137.951660 
	C581.462280,137.758148 581.920898,138.063034 582.451294,138.765167 
	C582.747742,139.738525 582.884521,140.475830 583.107666,141.578842 
	C586.336792,148.506302 588.807068,155.408356 593.502502,161.167358 
	C595.101562,163.128632 596.738831,164.858154 598.889099,166.243729 
	C607.279114,171.649948 615.738953,176.990662 622.671082,184.846420 
	C622.890442,185.129791 622.981140,185.098434 622.934326,185.088043 
	C623.190857,185.245178 623.453125,185.461624 623.797729,185.957062 
	C641.924683,203.697388 657.340942,223.173599 668.978027,245.520630 
	C681.434875,269.441925 689.447998,294.727814 693.257385,321.466980 
	C695.834412,339.555817 695.181274,357.649170 694.823792,375.769318 
	C694.774597,378.261719 695.119812,381.092224 692.439575,383.198364 
	C680.230530,383.301056 668.409729,383.190796 656.591309,383.312317 
	C653.006836,383.349182 651.561707,383.029785 652.721924,378.650208 
	C657.132446,362.001312 658.582153,344.945618 657.875793,327.773804 
	C656.842590,302.654175 653.671631,277.780670 645.974854,253.775742 
	C641.703491,240.454178 632.995239,229.480988 624.102478,218.885880 
	C615.961548,209.186569 606.919617,200.324783 596.978760,192.451813 
	C587.977478,185.322998 570.393250,188.696396 565.069580,198.694641 
	C564.640381,199.104019 564.387695,199.212173 563.785034,199.102448 
	C564.737549,191.159927 564.718018,191.108246 557.237366,193.938751 
	C553.346558,195.410934 549.662964,197.226456 547.662170,201.270676 
	C547.255676,202.092438 546.421631,203.181061 545.672668,203.277603 
	C540.712769,203.917007 538.818909,208.029831 536.228088,211.331207 
	C535.450684,212.321854 535.306396,213.877686 533.557922,213.933060 
	C532.160828,212.099747 534.028381,210.993408 534.491943,209.567017 
	C535.071960,207.782440 533.708862,208.286163 532.465942,208.345947 
	C531.960510,208.212311 531.802429,208.029449 531.825745,207.532623 
	C538.332092,200.567245 545.937500,195.449005 553.004028,188.998230 
	C559.676636,187.883606 565.332581,183.700806 572.145813,183.385880 
	C575.722534,183.220581 579.377014,183.191391 583.590149,182.599136 
	C579.489807,178.877380 575.051453,176.484848 570.811401,173.785706 
	C555.334717,163.933533 538.695557,156.585724 521.474426,150.411163 
	C517.170227,148.867889 513.276672,148.752823 509.008606,150.705048 
	C504.634369,152.705795 500.249573,154.605957 496.133057,157.131485 
	C490.338135,160.686722 487.847137,165.522949 489.701538,172.664948 
	C489.373260,173.329590 488.998596,173.457138 488.346497,173.210205 
	C486.234650,170.926071 487.255859,168.232666 486.433228,165.056015 
	C480.943512,170.628647 474.903503,175.116180 475.849365,183.838608 
	C475.989166,185.127808 476.378052,186.091431 474.053192,186.850845 
	C471.518982,187.678619 471.246918,191.379440 471.143829,194.139450 
	C470.970642,198.774796 471.087860,203.420975 471.050049,208.529663 
	C470.882263,209.104889 470.747375,209.213074 470.410583,209.158447 
	C469.288147,205.975189 469.591766,202.603439 468.677368,199.783813 
	C465.072815,188.668762 470.367767,179.599915 474.256134,169.978134 
	C473.833771,169.649933 473.664215,169.527054 473.756287,169.230362 
	C478.870453,164.780731 482.103485,159.008606 487.316376,155.014786 
	C492.218506,151.259079 497.397919,148.104523 504.251892,145.737259 
	C490.726929,141.679031 477.676422,138.717163 464.995911,139.612106 
	C451.047302,140.596573 437.460876,145.728180 426.324615,155.239273 
	C424.960144,156.404617 423.918365,157.978119 422.849426,159.451294 
	C421.578247,161.203140 419.927795,163.331558 421.196320,165.312256 
	C422.405212,167.199814 424.513824,165.248428 426.216492,165.030014 
	C431.630310,164.335617 434.785919,166.991959 435.208405,172.402695 
	C435.705658,178.771210 433.549347,184.922333 433.871429,191.265991 
	C433.962280,193.055481 432.816071,193.010254 431.528503,192.588196 
	C425.636993,190.657013 419.966675,188.239105 415.503174,183.802658 
	C412.364716,180.683228 411.340088,174.746994 414.235168,172.479034 
	C420.038635,167.932709 418.748657,161.255768 420.574829,155.435822 
	C412.291901,161.458923 404.607422,167.889740 401.441864,178.201309 
	C401.108154,179.288391 401.302185,181.436691 399.451416,181.124512 
	C397.341156,180.768600 398.245697,178.811417 398.466492,177.007385 
	C398.638214,176.600830 398.530518,176.180649 398.315460,176.208710 
	C394.264221,179.665359 391.807526,184.059189 389.227478,188.768158 
	C388.770142,189.108688 388.571411,189.228775 388.059082,189.197769 
	C386.838409,187.860779 386.926483,186.472794 386.971527,184.770081 
	C387.039581,184.227859 387.079926,184.014725 387.217346,183.494995 
	C387.483002,182.802078 387.690186,182.438187 388.122101,181.854141 
	C388.412933,181.439346 388.527374,181.272781 388.733124,180.817200 
	C392.936951,175.242172 396.983856,169.903214 401.190399,164.693130 
	C403.211060,162.190414 402.196564,161.826019 399.358887,162.078705 
	C398.896637,161.900970 398.784027,161.755127 398.838867,161.389389 
	C401.396057,160.916031 403.464539,159.990707 405.225494,158.329163 
	C413.674438,150.357269 423.877594,145.200470 434.232605,140.288208 
	C435.124054,139.865326 435.976898,139.361084 436.817780,138.041748 
	C428.198883,138.041748 419.566498,138.351349 410.963959,137.976257 
	C393.913116,137.232819 377.034882,135.111023 360.662964,129.994858 
	C358.417999,129.293304 356.191071,128.818268 353.420227,128.884583 
	C352.505310,128.395691 351.950745,128.042358 351.296082,127.326080 
	C343.027405,123.006798 335.866119,117.534706 328.301147,112.050247 
	C327.893127,111.649773 327.784973,111.419411 327.890594,110.872772 
z"/>
<path fill="#E9E8E7" opacity="1.000000" stroke="none" 
	d="
M491.896271,111.915527 
	C497.117676,121.227371 502.723053,129.977524 511.179565,137.005569 
	C505.539978,136.311539 499.861938,135.840240 494.269196,134.874878 
	C484.101898,133.119904 473.798218,132.866348 463.562469,132.223938 
	C457.866974,131.866470 453.389252,130.060364 449.066681,126.748611 
	C444.148773,122.980728 439.433044,119.091042 436.367737,113.173721 
	C434.555664,111.690269 434.981659,109.910194 435.059143,108.317429 
	C435.244293,104.512398 436.230530,103.930611 439.703735,105.325142 
	C445.869232,107.800636 447.807831,106.988495 450.182098,100.769539 
	C451.538361,97.217003 452.594543,93.561348 453.752228,89.714859 
	C449.079987,87.947960 444.549072,88.678955 440.119415,90.032158 
	C437.051788,90.969276 434.065277,93.275352 435.189972,96.482841 
	C437.147980,102.066994 434.696075,107.147736 434.609070,112.778542 
	C433.920532,116.529892 432.582153,114.291183 431.788666,113.365730 
	C426.251465,106.907562 422.100739,99.862801 422.767700,90.448792 
	C422.182983,89.250572 422.024078,88.403114 422.124237,87.166672 
	C422.235626,86.613434 422.301910,86.394974 422.526367,85.868774 
	C422.955688,85.175842 423.261047,84.819565 423.869934,84.252388 
	C424.553986,83.742805 424.998260,83.547745 425.842834,83.395157 
	C437.436005,87.543030 440.594574,85.494537 441.653412,73.350044 
	C441.796204,71.712318 441.620453,70.022308 442.749329,68.252502 
	C451.259857,70.087021 459.500916,72.176704 467.968323,74.021591 
	C471.281128,74.060944 473.195679,77.450623 476.944489,76.998322 
	C479.481781,77.648788 481.623840,78.348518 484.129639,79.173882 
	C485.912628,80.125816 485.525757,81.568336 485.872803,83.164612 
	C486.023102,83.526642 486.174866,83.927139 486.156067,83.961731 
	C486.960815,93.069145 489.152740,101.831131 492.098267,110.823051 
	C492.058716,111.233139 491.725342,111.356972 491.567749,111.617203 
	C491.410156,111.877441 491.795227,111.737297 491.896271,111.915527 
z"/>
<path fill="#E9E8E7" opacity="1.000000" stroke="none" 
	d="
M567.771973,127.060188 
	C570.755981,130.338989 570.580383,134.553314 571.935120,138.250259 
	C574.203674,144.440689 577.154724,150.319061 580.374573,156.258835 
	C577.795654,157.145203 576.348938,155.675690 574.823120,154.975174 
	C561.817078,149.003937 547.746826,146.095367 534.501465,140.868607 
	C528.014709,138.308853 522.115967,134.468536 516.318298,130.573654 
	C509.493256,125.988609 505.694885,119.851318 506.359070,110.947922 
	C505.145569,109.003372 506.128876,108.314079 507.708740,107.747009 
	C509.969513,108.799812 511.383881,110.433998 513.035828,111.775421 
	C516.863770,114.883911 520.203979,114.336685 522.950195,110.190819 
	C524.667847,107.597740 525.444519,104.453545 527.991455,102.048630 
	C533.904785,104.503456 539.123718,107.633461 543.913696,111.971367 
	C543.962524,113.525383 543.025391,114.111595 542.100708,114.263107 
	C537.257568,115.056679 537.630371,117.558510 539.790100,120.793106 
	C540.430298,121.751923 541.015259,122.751129 541.635559,123.726044 
	C546.380432,131.183029 553.905579,132.459351 558.152954,123.150162 
	C558.495972,122.398315 559.001282,121.736206 559.963623,121.075806 
	C563.344666,120.369461 562.704773,123.810829 564.690430,124.851395 
	C565.057617,126.545601 566.034302,127.024521 567.771973,127.060188 
z"/>
<path fill="#E1A966" opacity="1.000000" stroke="none" 
	d="
M508.999023,47.063293 
	C510.242401,50.349934 511.565643,53.217148 512.596069,56.185974 
	C514.244324,60.934746 512.552185,65.481781 508.436615,67.737053 
	C504.216217,70.049767 500.951447,68.242867 498.541840,64.861191 
	C496.916046,62.579536 494.368164,63.085094 492.367889,61.999092 
	C488.135406,59.701199 487.375122,57.992863 489.723846,53.733318 
	C491.923218,49.744602 495.277039,47.218388 499.645691,45.967548 
	C502.348846,45.193592 505.100586,44.505409 507.573181,42.417709 
	C508.077026,43.983795 508.512268,45.336628 508.999023,47.063293 
z"/>
<path fill="#E1A966" opacity="1.000000" stroke="none" 
	d="
M582.720825,138.621368 
	C582.113770,138.752762 581.616699,138.504318 580.983032,137.998840 
	C582.137085,133.311050 584.033508,129.263718 583.406738,124.145920 
	C582.845703,119.564835 587.310547,117.674606 591.571106,117.171257 
	C596.277527,116.615227 600.773254,117.958466 605.290955,119.018791 
	C606.720947,119.354408 607.360901,119.822037 606.457581,121.365379 
	C603.781799,125.936752 601.437683,130.722427 598.501282,135.115112 
	C595.799561,139.156754 591.427368,139.257431 587.778381,136.047272 
	C586.722717,135.118530 586.282104,132.683395 584.686218,133.387787 
	C583.020630,134.122971 583.015686,136.427444 582.720825,138.621368 
z"/>
<path fill="#E2AA66" opacity="1.000000" stroke="none" 
	d="
M476.924133,77.784180 
	C473.175690,78.357002 470.615906,76.995972 468.458191,73.992035 
	C466.954163,67.694847 468.369354,61.582401 467.977661,55.495464 
	C467.830078,53.201866 468.677032,53.146484 470.601868,53.665653 
	C474.616119,54.748371 478.520996,56.089905 482.077118,58.213497 
	C488.630280,62.126751 489.308624,67.349251 484.234894,73.230362 
	C483.724823,73.821594 483.420380,74.590218 483.037659,75.636139 
	C482.900299,76.169380 482.745789,76.343010 482.286804,76.686226 
	C480.452637,77.395943 478.890442,77.752136 476.924133,77.784180 
z"/>
<path fill="#E1A966" opacity="1.000000" stroke="none" 
	d="
M500.090332,87.378044 
	C501.314117,85.247833 500.850739,83.201973 500.939941,81.238136 
	C501.195251,75.615898 504.210510,72.699692 509.871643,72.917152 
	C516.225891,73.161232 521.480408,76.250740 526.800171,79.703003 
	C521.528564,83.482956 518.391907,88.949562 513.313965,92.945877 
	C509.552429,95.795921 506.813141,95.783852 503.917511,93.017616 
	C502.347229,91.517487 501.265961,89.641129 500.090332,87.378044 
z"/>
<path fill="#E2AA66" opacity="1.000000" stroke="none" 
	d="
M589.626099,83.549072 
	C588.803955,87.545296 586.995972,89.990692 582.932373,90.053383 
	C578.386536,90.123520 571.619812,86.350899 570.333191,82.632957 
	C569.098999,79.066574 569.820679,75.708984 572.659363,73.073044 
	C576.870422,69.162811 582.003967,66.998833 587.526184,65.269081 
	C588.258362,71.411484 588.957947,77.279510 589.626099,83.549072 
z"/>
<path fill="#E2AA67" opacity="1.000000" stroke="none" 
	d="
M566.715942,96.218811 
	C565.615601,97.960281 564.540527,99.113670 563.035889,100.000847 
	C558.711182,102.550781 554.150574,104.668442 549.547058,101.483856 
	C545.079102,98.393013 545.584106,93.357323 546.430725,88.718544 
	C547.072021,85.204559 547.872009,81.658798 549.779358,78.160393 
	C553.573914,81.962471 558.520386,83.644432 562.655273,86.672302 
	C565.950500,89.085297 567.884216,91.682251 566.715942,96.218811 
z"/>
<path fill="#E1A966" opacity="1.000000" stroke="none" 
	d="
M528.317871,101.619522 
	C526.888855,104.944366 525.606201,108.028046 523.980225,110.918617 
	C521.059753,116.110558 516.246521,116.820419 512.104675,112.646538 
	C510.683594,111.214447 509.209900,109.990448 507.249695,108.766251 
	C505.176910,99.890236 506.236359,97.056557 512.634766,94.591270 
	C519.308350,93.439148 525.391052,94.288239 531.565430,96.065025 
	C530.553833,98.116928 528.683044,99.243523 528.317871,101.619522 
z"/>
<path fill="#E1A966" opacity="1.000000" stroke="none" 
	d="
M582.325256,106.976143 
	C583.036011,105.446411 582.826904,103.977425 582.541138,102.234169 
	C581.727600,97.271774 584.813843,93.379349 589.830383,92.944504 
	C595.488220,92.454079 601.073975,92.912277 606.657043,95.193306 
	C604.069214,99.862740 601.735046,104.540588 598.972168,108.949837 
	C594.897339,115.452805 590.470947,115.521240 585.703735,109.454666 
	C584.910950,108.445877 584.394043,107.070877 582.325256,106.976143 
z"/>
<path fill="#E1A966" opacity="1.000000" stroke="none" 
	d="
M560.232056,120.542061 
	C560.232300,121.119507 560.180359,121.278183 560.109314,121.427849 
	C558.064697,125.734451 556.618225,130.782272 550.666992,131.086227 
	C544.696472,131.391159 542.034729,126.844040 539.427673,122.580917 
	C534.888306,115.158020 534.953552,115.118103 543.757935,112.540215 
	C546.142273,112.132896 548.275574,112.091530 550.362366,111.758896 
	C557.762207,110.579369 560.114563,112.546745 560.232056,120.542061 
z"/>
<path fill="#E1A966" opacity="1.000000" stroke="none" 
	d="
M411.339905,71.137024 
	C410.190979,69.479050 408.822235,69.840996 407.550629,69.777374 
	C401.450928,69.472214 400.141083,67.597717 401.903687,61.366547 
	C404.197083,55.032467 410.522797,53.455574 414.836945,48.954052 
	C416.894745,54.479832 421.603088,58.076336 423.910767,63.672188 
	C425.977600,68.179367 423.029388,70.386597 420.347168,72.448868 
	C417.274994,74.810928 414.252777,74.156494 411.339905,71.137024 
z"/>
<path fill="#E1A966" opacity="1.000000" stroke="none" 
	d="
M442.934418,67.650368 
	C442.798981,71.442429 443.018707,74.874146 442.300415,78.337296 
	C440.468964,87.167572 435.528137,89.576591 427.716553,85.142822 
	C427.020447,84.747696 426.232697,84.514015 425.160217,84.398003 
	C418.550018,77.655899 419.648193,72.200249 428.072418,68.569885 
	C430.040863,67.721588 432.023895,66.887192 434.656677,67.140427 
	C436.887146,66.685707 438.810608,66.403252 440.508545,65.627357 
	C442.596100,64.673401 442.578339,66.048164 442.934418,67.650368 
z"/>
<path fill="#EAE9E7" opacity="1.000000" stroke="none" 
	d="
M622.901611,184.769379 
	C616.013855,180.001709 609.495667,174.275787 602.175415,169.887772 
	C591.584900,163.539322 586.241943,154.031631 583.155273,142.330063 
	C583.667358,142.084824 584.281372,142.081024 584.593933,142.386093 
	C598.182312,155.649048 612.288940,168.442932 622.901611,184.769379 
z"/>
<path fill="#E9E7E5" opacity="1.000000" stroke="none" 
	d="
M513.044312,94.222580 
	C507.025696,97.210594 506.867035,102.262733 507.331970,108.073715 
	C506.717560,109.059875 506.381256,109.660385 506.039124,110.410843 
	C505.225739,112.712624 504.418182,114.864449 503.627716,116.970825 
	C494.118469,107.495003 492.774750,99.168274 496.563232,92.887169 
	C496.338684,91.747711 496.640228,91.022202 497.134216,90.045807 
	C497.479706,89.460693 497.685791,89.132828 498.051270,88.563919 
	C498.329895,88.172783 498.453247,88.025322 498.820374,87.726028 
	C499.239624,87.499168 499.415161,87.424141 499.799530,87.153229 
	C500.008362,86.957359 500.011292,87.001595 499.989929,86.998627 
	C501.794281,87.073692 502.261749,88.571609 502.937408,89.844658 
	C505.025726,93.779434 508.065033,95.161797 512.674744,93.250198 
	C513.049438,93.388908 513.051514,93.627129 513.044312,94.222580 
z"/>
<path fill="#E9E7E4" opacity="1.000000" stroke="none" 
	d="
M434.844299,66.873795 
	C432.485077,68.193985 429.866577,69.110565 427.335876,70.226280 
	C421.587738,72.760452 420.660553,75.529518 423.525238,81.068764 
	C423.972870,81.934334 424.275299,82.874992 424.738892,84.185791 
	C424.832916,84.590652 424.655670,84.849678 424.600372,84.913567 
	C424.125092,85.085892 423.752350,85.285027 423.196655,85.793259 
	C422.972748,86.023643 422.991364,85.993607 423.004761,85.982147 
	C422.166077,87.028534 422.432465,88.605125 421.071075,89.738716 
	C419.566681,91.079964 420.357391,92.754272 419.640503,94.291534 
	C417.050659,92.221481 416.715118,89.116241 415.354187,86.184235 
	C412.855530,82.092896 412.452087,77.843575 412.123901,73.230591 
	C411.572479,72.439018 411.308136,71.932999 411.058350,71.123398 
	C418.599731,74.124588 421.799194,72.614868 424.028229,64.355133 
	C427.617432,64.728851 431.299561,64.914291 434.844299,66.873795 
z"/>
<path fill="#EAE6E0" opacity="1.000000" stroke="none" 
	d="
M498.104553,90.213570 
	C497.645020,91.109253 497.302521,91.672523 496.882660,92.386436 
	C489.655670,93.427872 492.744751,87.947144 492.075684,84.401825 
	C494.197571,84.869850 496.260376,85.777924 498.630005,86.828072 
	C499.069794,87.140617 499.202789,87.311089 499.160156,87.754219 
	C498.984497,88.026871 498.991425,87.992889 499.005524,87.982834 
	C498.453247,88.483299 498.491364,89.246590 498.104553,90.213570 
z"/>
<path fill="#E8E8E8" opacity="1.000000" stroke="none" 
	d="
M691.284668,402.712097 
	C689.525940,399.363525 689.165039,395.746368 691.562256,392.064087 
	C691.848022,395.447296 692.428101,398.960785 691.284668,402.712097 
z"/>
<path fill="#E1A966" opacity="1.000000" stroke="none" 
	d="
M575.386353,90.954117 
	C575.628845,94.462097 574.634155,97.891655 572.897522,101.127861 
	C572.318970,97.492935 573.818115,94.338013 575.386353,90.954117 
z"/>
<path fill="#E6BB87" opacity="1.000000" stroke="none" 
	d="
M486.153351,83.290512 
	C485.586273,82.487686 485.149414,81.448730 484.458130,80.185616 
	C483.772522,79.748924 483.512878,79.401337 483.422424,78.595619 
	C483.551514,78.047569 483.656738,77.843216 484.106750,77.640503 
	C485.699219,78.195168 486.076569,79.453239 486.797119,80.780128 
	C486.585022,81.367737 486.354828,81.674896 486.099121,82.287079 
	C486.124664,82.731880 486.204132,82.893135 486.153351,83.290512 
z"/>
<path fill="#E1A966" opacity="1.000000" stroke="none" 
	d="
M493.573120,70.836777 
	C493.193939,71.077942 493.002472,71.060043 492.523315,71.024460 
	C492.025421,69.831711 492.721954,68.996895 493.671631,68.071472 
	C493.937622,68.871803 493.849213,69.724754 493.573120,70.836777 
z"/>
<path fill="#E1A966" opacity="1.000000" stroke="none" 
	d="
M578.954956,110.674393 
	C578.304138,110.981606 577.829834,110.963425 576.998840,110.907021 
	C577.062622,109.976364 577.527588,109.079224 578.693054,109.186333 
	C578.873291,109.202888 578.987000,109.943321 578.954956,110.674393 
z"/>
<path fill="#E9E8E7" opacity="1.000000" stroke="none" 
	d="
M565.003845,125.004128 
	C565.239929,124.485023 565.453369,123.951065 565.735962,123.456673 
	C565.761780,123.411606 566.410217,123.560043 566.464844,123.721657 
	C566.720642,124.478081 566.201782,124.765327 565.283081,124.960464 
	C564.991760,124.992302 565.000000,125.000000 565.003845,125.004128 
z"/>
<path fill="#E1A966" opacity="1.000000" stroke="none" 
	d="
M574.708130,113.225143 
	C574.759705,113.666809 574.558655,114.407906 574.153320,114.545036 
	C573.517334,114.760223 573.198242,114.113647 573.053101,113.202728 
	C573.476990,113.018555 573.920471,113.136169 574.708130,113.225143 
z"/>
<path fill="#E6BB87" opacity="1.000000" stroke="none" 
	d="
M481.918457,76.269440 
	C482.096191,75.954819 482.575897,75.958656 482.815338,75.977203 
	C483.446075,76.371643 483.837372,76.747528 484.340088,77.382782 
	C484.451508,77.642151 484.138794,77.889297 483.983337,78.014038 
	C482.659973,78.254494 482.061584,77.605591 481.918457,76.269440 
z"/>
<path fill="#E1A966" opacity="1.000000" stroke="none" 
	d="
M493.953369,67.960693 
	C493.883606,67.105995 493.534698,65.786018 494.528168,65.760010 
	C495.261749,65.740807 494.854675,67.003136 494.306824,67.862244 
	C494.026001,68.018852 493.977295,67.980423 493.953369,67.960693 
z"/>
<path fill="#E1A966" opacity="1.000000" stroke="none" 
	d="
M582.016357,107.021713 
	C581.640137,107.649963 581.397217,108.649734 580.372314,107.780174 
	C580.665955,107.481880 580.959534,107.183586 581.568237,106.875488 
	C581.883301,106.865700 581.972290,106.969437 582.016357,107.021713 
z"/>
<path fill="#EAE9E7" opacity="1.000000" stroke="none" 
	d="
M623.854187,185.915466 
	C623.640503,185.979706 623.353333,185.779785 622.976807,185.328766 
	C623.185242,185.268875 623.482971,185.460083 623.854187,185.915466 
z"/>
<path fill="#E1A965" opacity="1.000000" stroke="none" 
	d="
M486.371216,82.478287 
	C486.159912,82.197792 486.274597,81.824966 486.618774,81.268860 
	C486.797882,81.519035 486.747528,81.952492 486.371216,82.478287 
z"/>
<path fill="#E1A966" opacity="1.000000" stroke="none" 
	d="
M570.156372,105.667686 
	C570.103882,105.908073 569.914185,105.931740 569.438660,105.977081 
	C569.163757,105.376793 569.361267,105.049850 570.156372,105.667686 
z"/>
<path fill="#E1A966" opacity="1.000000" stroke="none" 
	d="
M499.279175,88.000412 
	C498.960693,87.851562 498.936859,87.676254 498.924896,87.235550 
	C499.115295,86.960266 499.293823,86.950378 499.740356,86.948929 
	C499.863525,87.296219 499.718719,87.635086 499.279175,88.000412 
z"/>
<path fill="#FCFCFA" opacity="1.000000" stroke="none" 
	d="
M146.352798,381.085358 
	C141.004120,369.188385 135.756744,357.594177 132.742203,345.057281 
	C128.614594,327.891235 128.083755,310.676300 129.912949,293.225983 
	C132.462753,268.901367 140.932831,246.687241 155.153702,227.047501 
	C177.838348,195.718872 207.990875,175.516922 246.394119,167.833023 
	C279.469055,161.215256 310.626312,166.491638 340.621246,180.898712 
	C344.644531,182.831161 348.355377,185.414062 352.498169,187.866608 
	C353.754395,189.937210 353.476898,191.577072 351.820587,193.157272 
	C354.751648,191.301407 357.744812,192.089340 361.084961,192.971283 
	C361.887817,193.195465 362.339417,193.345169 363.123840,193.623810 
	C363.904816,193.910675 364.335602,194.109940 365.045532,194.539825 
	C367.391113,197.937851 370.895599,199.689713 373.292755,202.991058 
	C372.429199,206.418579 371.221191,209.378220 368.954590,212.158127 
	C364.238922,210.995636 361.736847,207.183121 358.407562,204.525909 
	C337.898254,188.156738 314.549713,178.934067 288.558319,176.228012 
	C244.721191,171.663971 207.300613,185.617477 176.744629,216.866058 
	C152.365738,241.797501 140.030792,272.179199 139.211533,307.339355 
	C138.424011,341.136810 148.348618,371.092743 169.958618,396.925842 
	C192.214432,423.530914 220.591797,439.930969 255.118103,444.640381 
	C281.408752,448.226410 306.909851,444.962280 331.164215,433.593658 
	C339.118011,429.865540 339.338409,430.145996 344.867401,436.916321 
	C352.978180,446.848145 361.012177,456.841095 369.226501,467.178345 
	C370.481567,469.626556 369.902985,471.770111 369.386536,473.857269 
	C366.521973,485.433929 369.547119,495.707153 376.703217,504.789368 
	C392.678589,525.064697 409.164825,544.931274 425.353546,565.036865 
	C432.664337,574.116516 440.411652,582.886108 447.266632,592.284424 
	C458.975861,608.338013 480.713440,613.458435 500.379669,602.509155 
	C517.782166,592.820251 528.222168,570.763916 521.837952,552.429810 
	C519.520325,545.774109 515.106812,540.598755 510.825897,535.312256 
	C490.178741,509.815338 469.527771,484.321716 448.985352,458.740295 
	C446.795898,456.013763 444.487915,453.386780 442.296906,450.660126 
	C434.988586,441.565063 425.050140,437.999847 413.799652,437.267487 
	C412.305359,437.170227 410.797272,437.234131 408.988892,436.637146 
	C403.132080,431.814026 399.133759,425.826385 394.610016,420.303131 
	C390.072968,414.763611 385.765137,409.022888 380.997162,403.688843 
	C377.920258,400.246643 378.253204,397.498871 380.971191,394.090454 
	C389.973145,382.801788 396.909576,370.317657 401.713898,356.687500 
	C413.275482,323.886597 412.416168,291.350006 399.563171,259.077118 
	C395.781372,249.581375 390.720795,240.805801 384.801025,232.500931 
	C383.834106,231.144440 382.922913,229.745926 382.288910,227.759674 
	C382.185303,223.929474 384.181213,222.001694 387.549438,220.887741 
	C393.846191,225.407913 396.908539,232.008255 400.442322,238.115173 
	C408.734375,252.445084 414.551605,267.797638 417.518982,284.130798 
	C421.610199,306.649872 420.753113,328.913544 414.207977,350.961945 
	C410.880829,362.170013 406.209900,372.762421 400.984558,383.532349 
	C397.859039,388.188263 394.810944,392.508850 391.728546,396.804840 
	C390.154968,398.998016 391.599182,400.670105 392.799194,402.167023 
	C398.817688,409.674591 404.975739,417.070160 411.008240,424.566650 
	C412.720123,426.694031 415.033752,427.729828 417.496246,427.852783 
	C433.567474,428.655212 445.000977,437.141205 454.577698,449.286591 
	C467.930420,466.220886 481.586151,482.916382 495.128174,499.701202 
	C505.235321,512.228577 515.845886,524.383850 525.374756,537.335693 
	C539.014404,555.875061 536.176208,580.245789 521.572693,597.785278 
	C510.936127,610.560364 496.974792,617.867615 480.500916,618.630493 
	C466.414429,619.282898 453.373352,614.755615 443.961884,603.666382 
	C421.728729,577.469604 400.441284,550.492310 378.971405,523.666931 
	C373.577423,516.927429 367.470123,510.751099 363.506653,502.967163 
	C359.347412,494.798676 357.416107,486.166992 358.990265,477.035309 
	C359.780060,472.453705 357.915375,469.056641 355.215179,465.740112 
	C349.870911,459.176025 344.554108,452.587708 339.345428,445.916168 
	C337.296692,443.292053 335.406250,442.798553 332.145020,444.234039 
	C309.793823,454.072540 286.248962,457.839752 262.036469,455.804077 
	C239.255844,453.888733 217.919678,446.990936 198.256302,434.898651 
	C176.356918,421.431366 159.525375,403.302124 146.352798,381.085358 
z"/>
<path fill="#050505" opacity="1.000000" stroke="none" 
	d="
M610.122253,317.918701 
	C619.024170,317.918304 619.024353,317.918304 619.024109,326.522156 
	C619.023865,333.347473 619.022522,340.172821 619.022705,346.998138 
	C619.022888,354.480011 617.937683,361.537292 609.927612,364.773804 
	C602.246826,367.877289 594.262207,365.392334 588.146423,358.454437 
	C587.293762,358.509735 587.170227,359.113037 587.040222,359.793732 
	C586.141846,364.495087 582.031555,366.635956 577.482605,364.977051 
	C575.857422,364.384430 576.234619,363.217682 576.232605,362.156860 
	C576.206238,348.339783 576.255432,334.522400 576.174805,320.705750 
	C576.161804,318.480194 577.009766,318.002228 579.078674,317.864471 
	C589.132080,317.194977 589.125610,317.127960 589.128540,326.913544 
	C589.129944,331.574677 589.106201,336.236237 589.159729,340.896820 
	C589.194275,343.905182 589.559387,346.880646 590.859009,349.642944 
	C592.744202,353.649780 596.071716,355.155823 600.271545,354.496307 
	C604.459961,353.838593 605.966919,350.784302 606.003601,346.913208 
	C606.084045,338.424011 606.176453,329.931458 606.008484,321.445312 
	C605.951660,318.577240 606.854248,317.474792 610.122253,317.918701 
z"/>
<path fill="#060606" opacity="1.000000" stroke="none" 
	d="
M455.126190,316.896667 
	C460.617859,316.695221 465.582642,317.030273 470.421722,318.468170 
	C473.113678,319.268097 475.218109,326.298859 473.389252,328.411377 
	C472.336273,329.627655 471.275421,328.488495 470.238983,328.252136 
	C464.881836,327.030670 459.515839,325.698364 453.972900,326.400421 
	C452.338531,326.607422 449.911987,326.473663 449.884277,329.090881 
	C449.861511,331.240753 451.876190,331.520203 453.419373,331.970978 
	C458.355927,333.413086 463.417267,334.447693 468.108215,336.666473 
	C475.261383,340.049927 477.825470,344.636200 477.038910,352.717346 
	C476.393555,359.347687 472.591125,363.522095 465.380188,365.198914 
	C457.039917,367.138306 448.852203,365.859253 440.736877,363.709595 
	C438.931610,363.231384 438.027954,362.289368 438.129395,360.196564 
	C438.314606,356.376282 438.462799,352.513947 438.103363,348.718689 
	C437.732605,344.803650 439.244019,343.937317 442.880005,344.116516 
	C450.302643,344.482361 448.981415,343.307800 449.228638,350.546295 
	C449.309723,352.920746 447.872009,356.278534 452.100861,356.691437 
	C456.355835,357.106903 460.969604,358.168396 464.026611,353.975311 
	C466.458588,350.639526 464.698700,346.531189 460.223633,344.992218 
	C454.891846,343.158569 449.338959,341.941437 444.071320,339.954834 
	C438.302490,337.779175 436.451263,334.283630 436.859680,328.317749 
	C437.149994,324.077423 439.257507,321.109283 443.026825,319.368958 
	C446.693665,317.675934 450.597748,316.885010 455.126190,316.896667 
z"/>
<path fill="#060606" opacity="1.000000" stroke="none" 
	d="
M514.016052,338.920105 
	C520.429138,342.243500 522.870239,347.300751 521.807739,353.976044 
	C520.806519,360.266785 516.457214,364.342377 509.109070,365.589874 
	C501.758698,366.837738 494.537476,365.899475 487.439148,363.599274 
	C484.266235,362.571106 483.309723,361.309052 484.730042,357.872040 
	C487.140656,352.038757 486.886536,351.887543 492.934479,354.167175 
	C496.577911,355.540466 500.303406,356.311554 504.180298,355.854858 
	C506.346741,355.599640 508.635132,355.124023 508.992432,352.378174 
	C509.315369,349.896393 507.492615,348.851654 505.585815,348.061432 
	C501.443054,346.344513 497.172852,344.903473 493.134155,342.974152 
	C486.439667,339.776184 484.112823,335.503235 484.824280,328.614594 
	C485.406311,322.979584 488.700439,319.614990 495.644684,317.836273 
	C502.251740,316.143982 508.854309,316.643616 515.422363,318.203888 
	C517.790710,318.766510 518.941895,319.888947 518.932251,322.664764 
	C518.909302,329.279205 519.079407,329.337219 512.521729,327.721771 
	C508.744476,326.791199 504.954834,326.552734 501.121155,327.031799 
	C499.575745,327.224884 498.141266,327.875153 497.797668,329.590973 
	C497.401672,331.568604 498.588776,332.717255 500.276276,333.400879 
	C504.737030,335.207916 509.211761,336.980469 514.016052,338.920105 
z"/>
<path fill="#050505" opacity="1.000000" stroke="none" 
	d="
M549.000732,316.863159 
	C550.970886,316.933655 552.504822,316.806732 553.957581,317.092590 
	C564.076599,319.083618 563.915527,317.503204 562.646973,329.189972 
	C557.510925,327.704620 552.361389,326.380341 546.959412,326.849854 
	C544.886841,327.029999 542.720703,327.384125 542.205811,329.688782 
	C541.638733,332.227417 543.851624,333.076508 545.689209,333.835419 
	C549.979980,335.607452 554.465210,336.972961 558.598206,339.047913 
	C564.981628,342.252716 567.127625,346.612946 566.308716,353.239929 
	C565.531738,359.527710 561.981262,363.527679 555.280396,365.143280 
	C546.933289,367.155884 538.802429,365.984344 530.795044,363.134979 
	C528.316406,362.252991 527.739136,361.065887 528.963318,358.772369 
	C529.503052,357.761200 529.840942,356.610352 530.092163,355.483185 
	C530.784912,352.375763 532.126404,351.533173 535.207214,353.181152 
	C539.367188,355.406403 543.944885,356.385620 548.712158,355.866943 
	C550.945862,355.623901 553.178101,354.943970 553.500244,352.328003 
	C553.791321,349.963531 551.967407,348.807953 550.029236,348.031403 
	C546.486084,346.611786 542.868164,345.368988 539.371094,343.846436 
	C531.467529,340.405426 528.234680,335.465057 529.192383,328.595947 
	C530.077820,322.245056 534.787964,318.314667 543.046936,317.158997 
	C544.852295,316.906372 546.699219,316.949707 549.000732,316.863159 
z"/>
<path fill="#E0A864" opacity="1.000000" stroke="none" 
	d="
M388.103333,220.664795 
	C385.953705,222.514954 384.078217,224.180344 382.584595,226.663956 
	C382.056366,228.459274 381.160675,229.641953 380.277130,230.832733 
	C379.133179,232.374573 377.843292,232.546967 376.698334,230.957962 
	C372.652893,225.343674 368.773010,219.636597 368.734863,212.039215 
	C369.835114,208.846313 370.313873,205.766678 373.056000,203.405334 
	C375.853577,199.893204 380.103424,201.287949 383.635132,199.558228 
	C384.065918,201.027969 383.977173,202.190201 385.932404,202.998093 
	C395.343994,206.886993 396.278076,211.307495 389.582001,218.878647 
	C389.142700,219.375336 388.701965,219.870758 388.103333,220.664795 
z"/>
<path fill="#E1A965" opacity="1.000000" stroke="none" 
	d="
M401.594666,188.840240 
	C404.779419,190.121384 407.091675,187.689468 409.935455,187.764389 
	C415.735077,187.917160 418.810333,190.990295 418.318787,196.749207 
	C417.924103,201.372955 417.817261,206.042892 416.348236,210.492401 
	C415.779602,212.214783 416.835663,213.702423 416.652252,215.763489 
	C409.739258,214.476181 403.789520,211.330338 398.785248,206.834763 
	C394.002563,202.538300 394.324005,197.527893 398.773621,192.865631 
	C399.645966,191.951645 401.172455,191.480957 400.808228,189.414642 
	C400.942688,188.932068 401.123962,188.803467 401.594666,188.840240 
z"/>
<path fill="#E1AA67" opacity="1.000000" stroke="none" 
	d="
M470.182373,209.385223 
	C470.208710,208.995636 470.612854,208.996826 470.815002,208.996765 
	C472.617554,210.519913 471.109497,212.884674 472.452576,214.497086 
	C478.686127,210.106613 482.075958,209.642624 485.244354,212.720688 
	C488.966461,216.336670 488.816132,219.085083 484.665680,226.036926 
	C483.564667,227.881073 482.616943,229.825592 481.722351,231.780548 
	C481.249939,232.812943 481.043579,233.967056 480.605072,235.443527 
	C478.082214,233.238739 475.354584,231.636581 472.352325,230.389893 
	C468.654388,228.854324 466.553894,225.649796 464.980499,222.043091 
	C463.515808,218.685608 464.722382,216.017380 467.868347,215.439148 
	C472.378265,214.610214 470.987030,212.285065 470.182373,209.385223 
z"/>
<path fill="#E1AA67" opacity="1.000000" stroke="none" 
	d="
M534.709351,242.711792 
	C531.458801,244.745880 528.533081,246.611176 525.357483,248.635834 
	C523.950317,243.863373 519.149658,240.924667 518.699707,235.636383 
	C518.602234,234.491272 518.223572,233.340027 518.303284,232.214890 
	C518.756226,225.819595 522.823425,223.428894 528.746338,226.570404 
	C529.902649,227.183716 530.559265,227.227737 531.550964,227.108215 
	C535.437317,226.639771 539.038879,227.011734 540.540039,231.333908 
	C542.041077,235.655869 540.593933,239.117416 536.780212,241.594116 
	C536.226379,241.953766 535.617554,242.228806 534.709351,242.711792 
z"/>
<path fill="#E1AA66" opacity="1.000000" stroke="none" 
	d="
M547.791992,187.652451 
	C545.399475,187.728683 544.838379,190.005264 543.645691,191.487274 
	C539.699280,196.390808 534.445801,196.679321 529.981567,192.230743 
	C526.981506,189.241180 523.612244,182.295364 522.700562,177.075577 
	C527.428772,177.748077 531.918335,176.279083 536.508484,175.790161 
	C544.559692,174.932571 546.830261,176.770905 546.938782,185.011765 
	C546.948914,185.781860 547.361694,186.546661 547.791992,187.652451 
z"/>
<path fill="#E1A966" opacity="1.000000" stroke="none" 
	d="
M459.206390,163.027466 
	C465.543304,163.900986 468.724854,170.292999 466.918488,177.716187 
	C465.644714,182.950821 460.786560,185.380890 455.186523,183.419846 
	C450.094391,181.636642 445.925903,178.318512 441.398956,174.679550 
	C448.232269,172.050217 451.710144,164.958282 459.206390,163.027466 
z"/>
<path fill="#E1AA66" opacity="1.000000" stroke="none" 
	d="
M509.165527,209.168732 
	C511.086853,206.652466 512.530334,204.072739 515.372620,203.130081 
	C519.735413,201.683121 525.171143,206.195511 525.882751,211.713669 
	C526.944641,219.948547 522.637817,223.859436 514.475403,222.384583 
	C510.239380,221.619186 506.264679,220.375656 501.780090,217.950241 
	C505.691956,215.938889 506.471741,212.078262 509.165527,209.168732 
z"/>
<path fill="#E1A966" opacity="1.000000" stroke="none" 
	d="
M461.629395,200.944092 
	C461.492645,203.096939 463.187683,204.318680 463.992096,205.902817 
	C465.983368,209.824158 464.932495,213.132019 461.564026,215.541962 
	C457.390106,218.528152 452.351501,219.180115 447.425751,219.942429 
	C445.912598,220.176605 444.953674,219.745590 445.296600,217.711380 
	C445.983856,213.634552 446.242737,209.485931 446.916199,205.406219 
	C448.116577,198.134750 451.633362,196.405823 458.084106,199.821182 
	C459.117340,200.368225 460.001709,201.159515 461.629395,200.944092 
z"/>
<path fill="#E1A966" opacity="1.000000" stroke="none" 
	d="
M545.787781,211.734924 
	C550.269226,211.568787 554.856934,208.994919 558.629761,213.930695 
	C558.486694,220.216721 560.237366,226.297012 560.422363,232.750366 
	C556.312866,232.269318 552.346680,231.497406 548.499084,230.090118 
	C540.349854,227.109482 538.820190,222.382721 543.721069,215.358093 
	C544.272705,214.567398 544.582153,213.607712 545.058594,212.362839 
	C545.262634,211.824402 545.412048,211.649490 545.787781,211.734924 
z"/>
<path fill="#E1A966" opacity="1.000000" stroke="none" 
	d="
M491.572266,188.071777 
	C494.082794,192.865784 497.893036,196.620255 500.710968,201.037781 
	C502.013000,203.078903 501.991333,203.736420 499.829407,204.514877 
	C495.918182,205.923218 492.053467,207.254776 487.763245,207.138184 
	C480.831970,206.949844 478.098053,203.905228 479.173035,197.024612 
	C479.346924,195.911728 480.155701,194.852448 479.211853,193.258850 
	C480.394409,192.971710 480.904236,192.289474 481.424072,191.363480 
	C483.673889,187.355713 487.332855,187.462173 491.572266,188.071777 
z"/>
<path fill="#E1A966" opacity="1.000000" stroke="none" 
	d="
M563.281982,199.173340 
	C563.678162,198.903091 563.921326,198.921585 564.528687,198.967972 
	C565.397034,202.187241 567.548279,199.960266 568.714966,199.930405 
	C574.956970,199.770615 577.879272,203.017136 576.738342,209.147675 
	C575.986633,213.187012 574.067749,216.936020 573.920044,221.132507 
	C573.827148,223.771988 572.157654,222.937500 570.821899,222.234879 
	C566.716003,220.075119 562.830383,217.590210 559.297607,214.069672 
	C558.973022,213.964935 558.994019,213.991989 559.005493,214.004028 
	C557.409729,209.357254 557.915039,205.322174 562.188293,202.172470 
	C562.822937,201.704681 562.830994,200.386749 563.281982,199.173340 
z"/>
<path fill="#E1A966" opacity="1.000000" stroke="none" 
	d="
M488.127991,173.373947 
	C488.473663,173.005280 488.826324,173.011612 489.441223,173.039917 
	C491.339539,173.332825 491.951263,171.867203 492.980072,171.117722 
	C498.191406,167.321365 502.408844,168.605972 504.618378,174.720108 
	C506.289673,179.344757 506.722809,184.369598 509.441193,188.893372 
	C503.668762,189.138687 498.209015,189.406357 492.411072,187.951141 
	C491.982513,187.983521 492.005707,188.004181 492.018616,188.013947 
	C486.341339,184.464157 488.682678,178.712250 488.127991,173.373947 
z"/>
<path fill="#E9E8E6" opacity="1.000000" stroke="none" 
	d="
M384.004211,199.538513 
	C381.769257,203.818451 377.060760,201.033508 373.630066,203.074799 
	C370.133636,201.024384 366.609833,199.396225 365.024841,195.270615 
	C366.577942,193.387222 368.692841,193.827545 370.568420,193.420273 
	C374.089539,192.655731 377.261688,191.373917 378.288483,187.514771 
	C379.167694,184.210297 382.235199,184.550217 384.736145,183.202118 
	C385.033997,182.971390 385.000641,183.001114 384.979584,183.008575 
	C385.658142,182.430725 386.494110,182.495651 387.669922,182.746552 
	C388.408417,184.711304 387.924957,186.360718 387.447510,188.438812 
	C387.770233,190.580032 386.722504,192.016190 386.305786,193.927795 
	C385.183014,195.625732 385.008179,197.339447 384.108154,199.133240 
	C383.971741,199.460846 383.982361,199.518768 384.004211,199.538513 
z"/>
<path fill="#E1AB69" opacity="1.000000" stroke="none" 
	d="
M385.829926,194.196075 
	C385.968628,192.474228 386.472870,190.926331 387.184631,189.119843 
	C387.654816,188.884583 387.917450,188.907928 388.574463,188.959930 
	C388.371460,190.439499 387.774048,191.890411 387.034485,193.649612 
	C386.660065,194.095276 386.427765,194.232666 385.829926,194.196075 
z"/>
<path fill="#E1A966" opacity="1.000000" stroke="none" 
	d="
M531.689209,207.299759 
	C532.020691,207.414093 532.034241,207.609558 532.083252,208.100098 
	C530.943359,209.603699 529.588806,210.256943 527.328674,209.646454 
	C528.900818,208.765366 530.136047,208.073120 531.689209,207.299759 
z"/>
<path fill="#E6BB87" opacity="1.000000" stroke="none" 
	d="
M385.266785,194.285126 
	C385.702484,194.009171 385.940552,193.996231 386.535461,193.970596 
	C386.188660,195.678238 385.946716,197.611343 384.266479,199.239197 
	C383.743011,197.690460 384.332550,196.102875 385.266785,194.285126 
z"/>
<path fill="#E1AB69" opacity="1.000000" stroke="none" 
	d="
M401.869965,188.651123 
	C401.697357,189.011993 401.510529,189.018372 401.042572,189.042725 
	C399.823944,187.932602 398.982025,186.776611 399.609833,184.983200 
	C401.552185,185.377457 401.036407,187.314819 401.869965,188.651123 
z"/>
<path fill="#E1A966" opacity="1.000000" stroke="none" 
	d="
M532.571167,216.783234 
	C532.275757,218.145996 531.734192,219.292740 531.036499,220.718994 
	C530.729980,221.133636 530.579468,221.268784 530.202393,221.202087 
	C529.888062,219.780121 530.062317,218.626602 531.006042,217.312500 
	C531.483948,216.652496 531.869690,216.517609 532.571167,216.783234 
z"/>
<path fill="#E1A966" opacity="1.000000" stroke="none" 
	d="
M552.595886,188.207550 
	C553.005920,188.313156 553.006165,188.636978 553.009399,188.798569 
	C551.488220,189.057281 549.953857,189.261353 548.250183,188.268524 
	C547.996399,187.990982 547.981689,188.017227 547.969543,188.029297 
	C549.366882,188.061539 550.776367,188.081741 552.595886,188.207550 
z"/>
<path fill="#E1A966" opacity="1.000000" stroke="none" 
	d="
M476.438629,189.324127 
	C477.397797,189.178925 477.784271,189.599930 477.704071,190.372803 
	C477.689728,190.511063 477.516632,190.740891 477.410767,190.744400 
	C476.621826,190.770416 476.285797,190.303345 476.438629,189.324127 
z"/>
<path fill="#E1A965" opacity="1.000000" stroke="none" 
	d="
M532.924988,216.669342 
	C532.453003,216.999374 532.088684,216.999512 531.451477,216.999939 
	C531.171631,216.222214 531.234009,215.428726 532.152771,215.217255 
	C533.105408,214.998001 532.949463,215.795776 532.924988,216.669342 
z"/>
<path fill="#E1A965" opacity="1.000000" stroke="none" 
	d="
M464.998840,197.167191 
	C464.983124,196.104645 465.000641,194.879654 466.178467,195.096130 
	C467.058594,195.257904 466.344879,196.003937 465.931854,196.736298 
	C465.571075,197.128693 465.400116,197.264038 464.998840,197.167191 
z"/>
<path fill="#E1A966" opacity="1.000000" stroke="none" 
	d="
M462.025818,201.022659 
	C461.765015,200.124420 462.002167,199.443756 462.945190,199.120255 
	C463.060577,199.080688 463.237396,199.220291 463.385742,199.276855 
	C463.107849,199.782684 462.829987,200.288528 462.265228,200.889252 
	C461.978333,200.984146 462.010193,201.009308 462.025818,201.022659 
z"/>
<path fill="#E1A965" opacity="1.000000" stroke="none" 
	d="
M546.025085,211.641159 
	C546.014160,211.995300 545.563354,211.998077 545.338318,211.998688 
	C545.088745,211.136353 544.378662,210.169983 545.493530,209.478943 
	C545.674316,210.081650 545.855164,210.684326 546.025085,211.641159 
z"/>
<path fill="#E1A966" opacity="1.000000" stroke="none" 
	d="
M464.576813,197.087921 
	C464.768524,196.934982 465.255890,196.974060 465.498962,196.983704 
	C465.418091,197.318237 465.094208,197.643143 464.770325,197.968048 
	C464.641907,197.725662 464.513489,197.483261 464.576813,197.087921 
z"/>
<path fill="#E1AA67" opacity="1.000000" stroke="none" 
	d="
M529.736938,222.083862 
	C529.906067,222.497772 530.239990,223.175903 529.420837,223.371841 
	C529.439880,222.971542 529.458923,222.571228 529.736938,222.083862 
z"/>
<path fill="#E1A966" opacity="1.000000" stroke="none" 
	d="
M473.756470,169.043030 
	C474.017883,169.056564 474.007324,169.415298 474.005310,169.594055 
	C473.606476,169.743149 473.209625,169.713501 472.812805,169.683838 
	C473.040192,169.465714 473.267609,169.247589 473.756470,169.043030 
z"/>
<path fill="#E1A966" opacity="1.000000" stroke="none" 
	d="
M478.988861,193.003937 
	C478.706329,192.868851 478.504913,192.656479 478.303528,192.444107 
	C478.542755,192.415054 478.781982,192.386002 479.125458,192.563232 
	C479.229706,192.769501 479.069977,192.926651 478.988861,193.003937 
z"/>
<path fill="#E1AA67" opacity="1.000000" stroke="none" 
	d="
M529.938599,221.252655 
	C529.975891,221.000229 530.428833,220.999527 530.654663,220.999023 
	C530.748779,221.291748 530.617126,221.584991 530.240601,221.937531 
	C529.995850,221.996811 530.000000,222.000015 530.002686,222.002365 
	C529.970703,221.838181 529.936035,221.671646 529.938599,221.252655 
z"/>
<path fill="#E1AB69" opacity="1.000000" stroke="none" 
	d="
M384.648376,183.003998 
	C381.590790,184.747635 379.822174,187.663574 377.936432,191.064148 
	C375.551361,195.365219 370.323090,194.828201 365.433563,194.874207 
	C364.644012,194.864624 364.284485,194.810638 363.652771,194.780914 
	C363.032684,194.785660 362.723999,194.662872 362.225769,194.327759 
	C358.623566,194.020325 355.317932,191.907410 351.048279,195.118668 
	C351.826111,192.074997 352.253052,190.404221 352.732727,188.385437 
	C354.213623,184.886078 355.278778,181.499985 357.136536,178.626297 
	C363.290161,169.107437 372.236786,169.584167 377.264435,179.827637 
	C378.971710,183.306091 380.596008,184.841553 384.648376,183.003998 
z"/>
<path fill="#E1A965" opacity="1.000000" stroke="none" 
	d="
M390.899841,159.979553 
	C382.505768,169.374496 380.888916,169.291534 371.648560,160.284607 
	C368.498688,157.214325 366.319122,152.975647 361.115387,151.396317 
	C367.189331,146.976517 373.364716,143.687073 380.451569,142.522018 
	C386.294403,141.561478 390.859863,145.586319 391.042175,151.569016 
	C391.122833,154.215683 390.913757,156.871170 390.899841,159.979553 
z"/>
<path fill="#E1A966" opacity="1.000000" stroke="none" 
	d="
M338.658173,132.005188 
	C337.514313,133.972748 338.522369,135.077362 340.019012,136.510391 
	C344.205811,140.519272 343.918762,143.116669 338.949677,146.267426 
	C335.218323,148.633362 331.110382,148.818756 326.645752,148.817047 
	C319.617920,148.814331 318.227631,146.011246 319.970428,139.925461 
	C320.453918,138.237137 320.056458,136.299164 320.079803,134.475952 
	C320.144287,129.449203 322.769653,126.444496 327.548004,125.317909 
	C331.847198,124.304298 334.510162,126.344002 336.067993,130.222855 
	C336.454285,131.184677 337.042084,131.959869 338.658173,132.005188 
z"/>
<path fill="#E1AA67" opacity="1.000000" stroke="none" 
	d="
M396.313660,112.627632 
	C394.239197,111.490547 392.447815,110.675339 389.851593,110.827316 
	C392.740723,105.738190 396.076752,101.992882 400.366669,99.019608 
	C406.838348,94.534157 413.539551,97.239388 414.931763,106.469765 
	C416.325348,115.709000 411.474884,118.926819 402.589264,115.396858 
	C400.582855,114.599785 398.624908,113.680786 396.313660,112.627632 
z"/>
<path fill="#E1A965" opacity="1.000000" stroke="none" 
	d="
M326.331421,96.561241 
	C323.667786,95.386230 321.667511,93.964584 318.677979,94.895691 
	C315.533020,95.875221 313.798096,94.045624 313.687714,90.572212 
	C313.547821,86.171112 314.521210,82.342575 317.933289,79.326157 
	C319.798950,77.676895 321.687775,76.013702 322.893524,71.884109 
	C326.243103,79.468330 335.914764,80.428932 335.920654,89.911659 
	C336.035553,90.556488 336.135956,90.794434 336.151245,91.411110 
	C334.071320,95.596390 331.248383,97.832596 326.331421,96.561241 
z"/>
<path fill="#E1AA67" opacity="1.000000" stroke="none" 
	d="
M389.754578,87.278564 
	C387.173248,84.223259 384.794556,81.466141 382.855591,77.540184 
	C385.976349,78.362137 388.140717,77.607048 390.102753,75.542870 
	C391.914948,73.636307 394.300171,72.500763 396.970917,71.738213 
	C401.410858,70.470512 404.353333,72.676971 406.092224,75.921318 
	C407.644867,78.818130 408.590881,82.485115 405.356110,85.409203 
	C405.125488,85.617691 405.045624,85.983879 404.856964,86.249214 
	C399.552063,93.709976 396.643982,93.963066 389.754578,87.278564 
z"/>
<path fill="#E1A966" opacity="1.000000" stroke="none" 
	d="
M335.785217,91.333427 
	C335.998779,91.003304 335.983154,90.656769 335.959167,90.487656 
	C340.137573,85.889854 346.144928,84.295357 350.932373,80.776390 
	C352.628815,79.529434 352.827606,81.124771 353.123474,82.183647 
	C354.282104,86.330154 355.410645,90.508148 354.941620,94.867004 
	C354.428864,99.632698 351.179016,102.880287 346.635071,101.984482 
	C341.198212,100.912651 340.952606,103.609764 341.026245,107.563370 
	C341.077301,110.303322 342.047607,112.736084 342.894958,115.634804 
	C342.552399,116.021240 342.171356,116.021141 341.504669,116.034187 
	C337.661499,112.958549 337.364227,108.958931 338.244598,104.748360 
	C338.712799,102.509155 338.737579,100.641159 336.873383,98.917038 
	C334.706177,96.912674 334.433838,94.364830 335.785217,91.333427 
z"/>
<path fill="#E1A965" opacity="1.000000" stroke="none" 
	d="
M361.520752,110.770515 
	C354.001617,104.428253 354.121033,100.262772 361.951630,94.572281 
	C364.213898,92.928268 366.658844,90.734177 369.193787,90.471954 
	C372.283813,90.152306 370.824310,94.494484 372.887787,96.197258 
	C374.986908,97.929443 376.043152,100.702560 376.115295,103.740936 
	C376.275665,110.493904 371.826813,114.222572 365.227234,112.451935 
	C364.064514,112.139992 362.448547,112.634766 361.520752,110.770515 
z"/>
<path fill="#E1A966" opacity="1.000000" stroke="none" 
	d="
M327.673462,110.392654 
	C328.026917,110.842995 327.993713,111.134514 328.002991,111.655609 
	C323.412323,110.503380 319.665009,109.797295 318.051392,116.359940 
	C317.064575,120.373398 313.004028,120.994354 309.455261,118.654663 
	C305.037048,115.741707 300.833160,112.503685 296.235687,109.189018 
	C300.562408,105.569778 304.679932,101.729218 310.558960,100.710960 
	C314.054626,100.105515 317.719849,101.100456 318.369568,104.368950 
	C319.478821,109.949219 322.875702,110.433937 327.673462,110.392654 
z"/>
<path fill="#E9E6E3" opacity="1.000000" stroke="none" 
	d="
M335.692444,91.159157 
	C335.355194,94.311668 335.758575,97.344330 338.936005,99.166351 
	C341.001373,100.350685 340.316681,101.970924 339.843536,103.376312 
	C338.434753,107.560631 339.257294,111.451050 341.085632,115.674202 
	C332.731171,112.665024 329.081818,105.332802 326.058289,97.086342 
	C326.051483,96.688515 326.007782,96.531616 325.999268,96.455124 
	C329.782501,95.915222 333.480988,95.278908 335.692444,91.159157 
z"/>
<path fill="#E1A966" opacity="1.000000" stroke="none" 
	d="
M350.739807,127.058685 
	C351.973114,127.078590 352.663361,127.334534 352.951782,128.538071 
	C348.614502,129.918060 344.233093,131.006317 339.465179,132.091034 
	C339.078705,132.087479 339.020172,132.021362 338.991272,131.986954 
	C342.129944,128.864410 346.321960,128.167755 350.739807,127.058685 
z"/>
<path fill="#E1A966" opacity="1.000000" stroke="none" 
	d="
M411.885376,73.398964 
	C413.754608,76.788391 413.928131,81.089203 415.064331,85.545807 
	C414.477051,86.905937 413.862000,87.865067 412.934143,89.005486 
	C413.521606,84.024849 411.534119,78.992378 411.885376,73.398964 
z"/>
<path fill="#E1AB69" opacity="1.000000" stroke="none" 
	d="
M398.578369,161.123108 
	C399.006378,161.169510 399.006317,161.607956 399.007812,161.827393 
	C397.030487,163.098755 395.270752,161.737396 393.195557,161.283722 
	C394.707153,161.045059 396.428741,161.060883 398.578369,161.123108 
z"/>
<path fill="#E1AA67" opacity="1.000000" stroke="none" 
	d="
M419.762604,106.291428 
	C420.061554,106.771996 420.028198,107.139473 419.984375,107.787346 
	C419.007843,107.386864 417.558929,107.448830 417.003082,106.136772 
	C417.812164,106.150627 418.621216,106.164482 419.762604,106.291428 
z"/>
<path fill="#E1AB69" opacity="1.000000" stroke="none" 
	d="
M388.004211,182.983490 
	C387.252350,183.021118 386.486572,183.069595 385.339661,183.067047 
	C386.041656,182.277481 387.124817,181.538925 388.516205,180.664276 
	C388.857605,180.784958 388.890717,181.041733 388.946899,181.686142 
	C388.796753,182.224991 388.623444,182.376175 388.210785,182.775848 
	C387.971466,183.024338 387.990265,182.994324 388.004211,182.983490 
z"/>
<path fill="#E1AB69" opacity="1.000000" stroke="none" 
	d="
M391.282532,160.613800 
	C390.963531,160.436432 390.968262,160.473099 390.955261,160.488434 
	C391.518341,160.503067 392.094452,160.502365 392.828064,160.765442 
	C392.985565,161.029221 393.010742,160.991882 393.027161,160.975830 
	C392.562897,160.903564 392.082184,160.847366 391.282532,160.613800 
z"/>
<path fill="#E1A966" opacity="1.000000" stroke="none" 
	d="
M434.890137,113.071495 
	C434.315521,112.141396 433.863556,111.122627 434.031799,110.219391 
	C434.896118,105.578888 435.140808,101.186111 433.534943,96.447464 
	C432.263062,92.694366 436.738647,88.929550 442.088867,87.975319 
	C446.718872,87.149544 451.290161,87.550873 456.290100,88.276993 
	C453.291199,92.958008 452.847504,98.444489 450.630096,103.309464 
	C448.251923,108.527168 444.922211,109.734779 440.333649,107.283928 
	C439.094971,106.622314 438.143921,104.492599 436.621185,105.472801 
	C435.128265,106.433838 435.888885,108.501320 435.873230,110.107742 
	C435.866791,110.768028 435.985992,111.429543 436.081665,112.523247 
	C435.843170,112.982704 435.571014,113.009407 434.890137,113.071495 
z"/>
<path fill="#E1A966" opacity="1.000000" stroke="none" 
	d="
M421.109192,89.944466 
	C421.327515,88.696342 421.867249,87.473419 422.712585,86.110588 
	C422.982300,87.050407 422.946411,88.130127 422.811768,89.606949 
	C422.285522,89.992577 421.858032,89.981117 421.109192,89.944466 
z"/>
<path fill="#E1A966" opacity="1.000000" stroke="none" 
	d="
M492.006226,111.878151 
	C491.431732,111.903809 490.866119,111.713844 490.132385,111.281738 
	C490.436127,111.026665 490.907990,111.013741 491.719299,111.116974 
	C492.058716,111.233139 492.015167,111.662537 492.006226,111.878151 
z"/>
<path fill="#E1AB69" opacity="1.000000" stroke="none" 
	d="
M398.152893,176.448822 
	C398.255859,176.011230 398.411346,175.785690 398.566833,175.560181 
	C398.647247,175.830643 398.727631,176.101105 398.723114,176.486206 
	C398.638214,176.600830 398.205444,176.660873 398.152893,176.448822 
z"/>
<path fill="#E9E8E6" opacity="1.000000" stroke="none" 
	d="
M388.234070,183.007294 
	C388.032013,182.680511 388.210754,182.416794 388.738861,182.153503 
	C388.812256,182.379272 388.654480,182.684753 388.234070,183.007294 
z"/>
<path fill="#E1A966" opacity="1.000000" stroke="none" 
	d="
M434.532959,116.550781 
	C434.476715,116.584503 434.589203,116.517059 434.532959,116.550781 
z"/>
<path fill="#E1A966" opacity="1.000000" stroke="none" 
	d="
M480.404724,94.340042 
	C486.530579,99.780518 486.689453,109.157555 480.911285,114.272331 
	C478.106293,116.755295 475.049683,116.698540 471.822723,114.521767 
	C466.387939,110.855598 463.319489,104.914833 457.625610,100.716629 
	C464.944275,96.687790 471.386963,91.835747 480.404724,94.340042 
z"/>
<path fill="#FCFCFA" opacity="1.000000" stroke="none" 
	d="
M481.722778,75.911812 
	C482.510864,76.583923 482.925507,77.213020 483.584045,77.990448 
	C483.895416,78.547081 483.962952,78.955376 484.117065,79.662560 
	C481.714661,80.143898 479.569885,79.023857 476.976532,78.014755 
	C477.986176,76.751045 479.578857,76.099342 481.722778,75.911812 
z"/>
<path fill="#E1A966" opacity="1.000000" stroke="none" 
	d="
M423.302429,85.983612 
	C423.261017,85.679169 423.549255,85.334686 424.191284,84.983826 
	C424.240753,85.299492 423.936432,85.621536 423.302429,85.983612 
z"/>
<path fill="#E1A966" opacity="1.000000" stroke="none" 
	d="
M490.013672,110.991211 
	C489.786621,110.846413 489.541870,110.716454 489.297150,110.586487 
	C489.519562,110.592125 489.741943,110.597755 489.964294,110.821487 
	C489.964233,111.039581 489.996033,111.006050 490.013672,110.991211 
z"/>
<path fill="#E1A966" opacity="1.000000" stroke="none" 
	d="
M487.374298,109.578957 
	C487.263184,109.470451 487.642792,109.422913 487.642792,109.422913 
	C487.642792,109.422913 487.485413,109.687462 487.374298,109.578957 
z"/>
<path fill="#E1A966" opacity="1.000000" stroke="none" 
	d="
M498.221497,90.265495 
	C497.651489,89.741081 497.759613,89.000343 498.664124,88.148026 
	C498.831573,88.643517 498.643524,89.314262 498.221497,90.265495 
z"/>
<path fill="#3B3738" opacity="1.000000" stroke="none" 
	d="
M368.669128,211.594116 
	C370.527252,218.906631 373.745575,225.297852 378.264709,231.214005 
	C380.076324,230.388184 379.714020,227.586868 382.183411,227.082428 
	C421.242889,279.091888 420.791351,344.030121 381.129669,395.958313 
	C379.023254,398.716156 379.813446,400.105225 381.551819,402.225098 
	C390.633362,413.299805 399.617920,424.454041 408.800842,435.878143 
	C408.651581,438.521423 406.573517,438.167664 405.131653,438.490723 
	C390.242950,441.826569 379.641602,450.516449 372.834442,464.046844 
	C372.025757,465.654175 371.402100,467.427795 369.339020,468.470215 
	C360.009155,457.573303 350.940033,446.704987 342.153534,435.612823 
	C339.744537,432.571655 338.153687,431.698090 334.138336,433.601654 
	C254.927643,471.153625 163.224228,428.472992 141.594345,344.171539 
	C121.241791,264.848389 176.694244,183.968582 257.752014,175.012222 
	C300.091553,170.333984 336.996521,182.645447 368.669128,211.594116 
z"/>
<path fill="#FDDD11" opacity="1.000000" stroke="none" 
	d="
M368.940857,468.900818 
	C373.933472,456.899597 381.285553,447.406616 392.768768,441.488647 
	C397.698242,438.948242 402.899933,437.420532 408.652039,436.371613 
	C425.242218,435.304047 437.464630,441.906372 447.543732,454.787872 
	C469.186707,482.448669 490.775177,510.229614 513.921387,536.614319 
	C535.694702,561.433960 522.381897,596.741333 493.664856,607.061646 
	C475.911682,613.441833 459.057800,608.771057 447.155701,594.086121 
	C423.887054,565.376953 400.761993,536.550171 377.315979,507.986725 
	C367.764343,496.350250 364.993500,483.638519 368.940857,468.900818 
z"/>
<path fill="#E9E8E6" opacity="1.000000" stroke="none" 
	d="
M362.178589,194.403107 
	C362.340576,194.274353 362.678711,194.344315 363.198730,194.609741 
	C363.038666,194.737396 362.696716,194.669617 362.178589,194.403107 
z"/>
<path fill="#FDFDFD" opacity="1.000000" stroke="none" 
	d="
M336.154114,398.194214 
	C270.102386,443.582184 181.824707,406.286469 168.289673,327.608398 
	C157.692917,266.010284 205.777222,206.941147 268.130768,203.650208 
	C322.162994,200.798447 373.160797,239.024246 380.423553,296.505402 
	C385.720886,338.431122 370.374725,372.507172 336.154114,398.194214 
z"/>
<path fill="#020202" opacity="1.000000" stroke="none" 
	d="
M265.959106,355.000763 
	C254.595505,355.000763 254.616379,355.000702 254.589737,344.337616 
	C254.561829,333.175903 254.840225,321.998291 254.333496,310.857269 
	C253.848679,300.198120 247.631302,295.836792 237.148224,297.770599 
	C231.896515,298.739380 229.090225,301.979858 227.886337,306.961517 
	C226.657181,312.047852 227.312775,317.192352 227.585922,323.010010 
	C230.916443,316.619049 236.575958,315.616455 242.680252,315.329865 
	C245.307861,315.206543 246.400711,315.965363 246.046295,318.631531 
	C245.915710,319.613922 246.029831,320.628235 246.024658,321.627960 
	C246.011749,324.126953 246.782898,327.022003 245.777451,329.023804 
	C244.546280,331.475098 241.275696,329.766571 238.930511,330.219360 
	C232.391144,331.481934 229.033432,334.610718 227.741272,341.212524 
	C227.486191,342.515747 227.270340,343.839630 227.196854,345.162903 
	C227.023315,348.286865 228.158737,352.642181 226.536606,354.246246 
	C224.294159,356.463745 219.923172,354.915222 216.473480,354.962433 
	C207.938507,355.079254 207.935913,355.000763 207.937805,346.520050 
	C207.940369,335.023010 207.855942,323.525055 207.969742,312.029114 
	C208.161087,292.700165 218.122406,282.580902 237.526459,281.906006 
	C240.685547,281.796082 243.863434,281.821472 247.017029,282.025391 
	C263.476990,283.089874 273.260742,292.630096 273.820496,309.057861 
	C274.308258,323.371521 273.916229,337.713776 274.059479,352.041931 
	C274.084198,354.515564 273.286072,355.284790 270.945282,355.030640 
	C269.463165,354.869751 267.949341,355.000702 265.959106,355.000763 
z"/>
<path fill="#050505" opacity="1.000000" stroke="none" 
	d="
M311.910217,327.599457 
	C312.840485,335.209076 315.310883,338.325562 320.661591,339.069580 
	C327.512146,340.022125 332.516113,337.306641 335.234711,331.227631 
	C337.338196,326.524170 337.404724,321.512268 337.446198,316.523468 
	C337.526459,306.859833 337.587280,297.192932 337.405029,287.532104 
	C337.344940,284.345795 338.105255,283.021820 341.542267,283.281860 
	C346.491821,283.656403 352.984467,281.724426 356.030884,284.203064 
	C359.236908,286.811554 356.962555,293.552765 356.999420,298.475067 
	C357.130310,315.969727 356.968842,333.466736 357.124908,350.960999 
	C357.153412,354.154938 356.425781,355.461029 353.072235,355.052216 
	C349.471649,354.613281 344.839691,356.506104 342.477020,354.256500 
	C340.400116,352.279083 340.764130,347.738037 340.054443,344.349762 
	C339.538055,344.376465 339.051575,344.283386 338.972198,344.422546 
	C332.469177,355.823975 321.921875,357.405579 310.407562,355.731140 
	C300.938538,354.354095 294.762085,347.555145 292.957886,337.622528 
	C291.305267,328.524353 292.295807,319.336517 292.118378,310.190643 
	C291.966492,302.362213 292.184540,294.526550 292.032715,286.698120 
	C291.981812,284.073181 292.797272,283.176361 295.425354,283.299591 
	C299.415619,283.486633 303.436859,283.567505 307.415344,283.281586 
	C310.866272,283.033539 311.969482,284.068359 311.915344,287.658295 
	C311.716797,300.818024 311.870514,313.983093 311.910217,327.599457 
z"/>
<path fill="#090909" opacity="1.000000" stroke="none" 
	d="
M265.033600,260.942444 
	C266.354309,260.942444 267.185699,260.942444 268.017059,260.942444 
	C275.135895,260.942505 274.795288,260.965027 275.248810,267.823120 
	C275.568329,272.655914 274.168427,273.978302 269.312408,273.790466 
	C258.686707,273.379456 248.033142,273.736084 237.393524,273.591034 
	C235.635696,273.567108 232.749847,275.151550 232.426453,271.404144 
	C232.196793,268.743042 232.410736,266.600586 235.710709,265.823853 
	C237.397614,265.426819 238.967728,264.209930 240.393311,263.108246 
	C242.168167,261.736603 242.545242,259.625549 241.789948,257.679810 
	C240.963577,255.550934 239.034210,254.747894 236.869995,255.649490 
	C234.302567,256.719055 233.409821,255.224457 233.267502,253.269882 
	C233.099411,250.961105 229.895538,248.080399 233.798096,246.356537 
	C239.576553,243.804001 245.640594,242.825592 251.647308,245.598465 
	C256.761749,247.959412 257.931244,252.332199 256.039978,260.942444 
	C258.910248,260.942444 261.727234,260.942444 265.033600,260.942444 
z"/>
</svg>